<svg width="480" height="320" viewBox="0 0 480 320" fill="none" xmlns="http://www.w3.org/2000/svg">
<g opacity="0.54" clip-path="url(#clip0_160_1498)">
<rect width="480" height="320" fill="url(#paint0_linear_160_1498)"/>
<g clip-path="url(#clip1_160_1498)">
<path fill-rule="evenodd" clip-rule="evenodd" d="M387.975 17.2033L387.975 16.9178L387.833 16.775L382.125 11.0479L376.416 5.32073L376.131 5.03467L375.847 5.32073L370.138 11.0479L364.43 16.775L364.145 17.0606L363.86 16.775L358.152 11.0479L352.443 5.32073L352.158 5.03467L351.874 5.32073L346.166 11.0479L340.457 16.775L340.172 17.0606L339.887 16.775L334.179 11.0479L328.47 5.32073L328.186 5.03467L327.901 5.32073L322.193 11.0479L316.484 16.775L316.199 17.0606L315.915 16.775L310.206 11.0479L304.497 5.32073L304.213 5.03466L303.928 5.32073L298.22 11.0479L292.511 16.775L292.226 17.0605L291.942 16.775L286.233 11.0479L280.525 5.32073L280.24 5.03466L279.955 5.32073L274.247 11.0479L268.539 16.775L268.254 17.0605L267.969 16.775L262.26 11.0479L256.552 5.32073L256.267 5.03466L255.982 5.32073L250.274 11.0478L244.566 16.775L244.281 17.0605L243.996 16.775L238.287 11.0478L232.579 5.32072L232.294 5.03466L232.01 5.32072L226.301 11.0478L220.593 16.775L220.308 17.0605L220.023 16.775L214.314 11.0478L208.606 5.32072L208.321 5.03466L208.037 5.32072L202.329 11.0478L196.62 16.775L196.335 17.0605L196.05 16.775L194.025 14.7427L194.025 15.885L195.196 17.0605L194.025 18.2356L194.025 19.3779L196.05 17.3461L196.335 17.0605L196.62 17.3461L202.329 23.0732L208.037 28.8004L208.321 29.0859L208.606 28.8004L214.314 23.0732L220.023 17.3461L220.308 17.0605L220.593 17.3461L226.301 23.0732L232.01 28.8004L232.294 29.0859L232.579 28.8004L238.287 23.0732L243.996 17.3461L244.281 17.0605L244.566 17.3461L250.274 23.0732L255.982 28.8004L256.267 29.0859L256.552 28.8004L262.26 23.0732L267.969 17.3461L268.254 17.0605L268.539 17.3461L274.247 23.0732L279.955 28.8004L280.24 29.0859L280.525 28.8004L286.233 23.0732L291.942 17.3461L292.226 17.0605L292.511 17.3461L298.22 23.0732L303.928 28.8004L304.213 29.0859L304.497 28.8004L310.206 23.0733L315.915 17.3461L316.199 17.0606L316.484 17.3461L322.193 23.0733L327.901 28.8004L328.186 29.0859L328.47 28.8004L334.179 23.0733L339.887 17.3461L340.172 17.0606L340.457 17.3461L346.166 23.0733L351.874 28.8004L352.158 29.086L352.443 28.8004L358.152 23.0733L363.86 17.3461L364.145 17.0606L364.43 17.3461L370.138 23.0733L375.847 28.8004L376.131 29.086L376.416 28.8004L382.125 23.0733L387.833 17.3461L387.975 17.2033Z" stroke="#DBDDEA" stroke-miterlimit="10"/>
<path fill-rule="evenodd" clip-rule="evenodd" d="M387.975 41.2619L387.975 40.9764L387.833 40.8336L382.125 35.1064L376.416 29.3793L376.131 29.0933L375.847 29.3793L370.138 35.1064L364.43 40.8336L364.145 41.1191L363.86 40.8336L358.152 35.1064L352.443 29.3793L352.158 29.0933L351.874 29.3793L346.166 35.1064L340.457 40.8336L340.172 41.1191L339.887 40.8336L334.179 35.1064L328.47 29.3793L328.186 29.0933L327.901 29.3793L322.193 35.1064L316.484 40.8336L316.199 41.1191L315.915 40.8336L310.206 35.1064L304.497 29.3793L304.213 29.0933L303.928 29.3793L298.22 35.1064L292.511 40.8336L292.226 41.1191L291.942 40.8336L286.233 35.1064L280.525 29.3793L280.24 29.0933L279.955 29.3793L274.247 35.1064L268.539 40.8336L268.254 41.1191L267.969 40.8336L262.26 35.1064L256.552 29.3793L256.267 29.0933L255.982 29.3793L250.274 35.1064L244.566 40.8336L244.281 41.1191L243.996 40.8336L238.287 35.1064L232.579 29.3793L232.294 29.0933L232.01 29.3793L226.301 35.1064L220.593 40.8336L220.308 41.1191L220.023 40.8336L214.314 35.1064L208.606 29.3793L208.321 29.0933L208.037 29.3793L202.329 35.1064L196.62 40.8336L196.335 41.1191L196.05 40.8336L194.025 38.8013L194.025 39.9436L195.196 41.1191L194.025 42.2942L194.025 43.4365L196.05 41.4047L196.335 41.1191L196.62 41.4047L202.329 47.1318L208.037 52.859L208.321 53.1445L208.606 52.859L214.314 47.1318L220.023 41.4047L220.308 41.1191L220.593 41.4047L226.301 47.1318L232.01 52.859L232.294 53.1445L232.579 52.859L238.287 47.1318L243.996 41.4047L244.281 41.1191L244.566 41.4047L250.274 47.1318L255.982 52.859L256.267 53.1445L256.552 52.859L262.26 47.1318L267.969 41.4047L268.254 41.1191L268.539 41.4047L274.247 47.1318L279.955 52.859L280.24 53.1445L280.525 52.859L286.233 47.1318L291.942 41.4047L292.226 41.1191L292.511 41.4047L298.22 47.1318L303.928 52.859L304.213 53.1445L304.497 52.859L310.206 47.1318L315.915 41.4047L316.199 41.1191L316.484 41.4047L322.193 47.1318L327.901 52.859L328.186 53.1445L328.47 52.859L334.179 47.1318L339.887 41.4047L340.172 41.1191L340.457 41.4047L346.166 47.1318L351.874 52.859L352.158 53.1445L352.443 52.859L358.152 47.1318L363.86 41.4047L364.145 41.1191L364.43 41.4047L370.138 47.1318L375.847 52.859L376.131 53.1445L376.416 52.859L382.125 47.1318L387.833 41.4047L387.975 41.2619Z" stroke="#DBDDEA" stroke-miterlimit="10"/>
<path fill-rule="evenodd" clip-rule="evenodd" d="M387.975 65.3205L387.975 65.035L387.833 64.8922L382.125 59.165L376.416 53.4379L376.131 53.1519L375.847 53.4379L370.138 59.165L364.43 64.8922L364.145 65.1777L363.86 64.8922L358.152 59.165L352.443 53.4379L352.158 53.1519L351.874 53.4379L346.166 59.165L340.457 64.8922L340.172 65.1777L339.887 64.8922L334.179 59.165L328.47 53.4379L328.186 53.1519L327.901 53.4379L322.193 59.165L316.484 64.8922L316.199 65.1777L315.915 64.8922L310.206 59.165L304.497 53.4379L304.213 53.1519L303.928 53.4379L298.22 59.165L292.511 64.8922L292.226 65.1777L291.942 64.8922L286.233 59.165L280.525 53.4379L280.24 53.1519L279.955 53.4379L274.247 59.165L268.539 64.8922L268.254 65.1777L267.969 64.8922L262.26 59.165L256.552 53.4379L256.267 53.1518L255.982 53.4379L250.274 59.165L244.566 64.8922L244.281 65.1777L243.996 64.8922L238.287 59.165L232.579 53.4379L232.294 53.1518L232.01 53.4379L226.301 59.165L220.593 64.8922L220.308 65.1777L220.023 64.8922L214.314 59.165L208.606 53.4379L208.321 53.1518L208.037 53.4379L202.329 59.165L196.62 64.8922L196.335 65.1777L196.05 64.8922L194.025 62.8599L194.025 64.0022L195.196 65.1777L194.025 66.3528L194.025 67.4951L196.05 65.4633L196.335 65.1777L196.62 65.4633L202.329 71.1904L208.037 76.9176L208.321 77.2031L208.606 76.9176L214.314 71.1904L220.023 65.4633L220.308 65.1777L220.593 65.4633L226.301 71.1904L232.01 76.9176L232.294 77.2031L232.579 76.9176L238.287 71.1904L243.996 65.4633L244.281 65.1777L244.566 65.4633L250.274 71.1904L255.982 76.9176L256.267 77.2031L256.552 76.9176L262.26 71.1904L267.969 65.4633L268.254 65.1777L268.539 65.4633L274.247 71.1904L279.955 76.9176L280.24 77.2031L280.525 76.9176L286.233 71.1904L291.942 65.4633L292.226 65.1777L292.511 65.4633L298.22 71.1904L303.928 76.9176L304.213 77.2031L304.497 76.9176L310.206 71.1904L315.915 65.4633L316.199 65.1777L316.484 65.4633L322.193 71.1904L327.901 76.9176L328.186 77.2031L328.47 76.9176L334.179 71.1904L339.887 65.4633L340.172 65.1777L340.457 65.4633L346.166 71.1904L351.874 76.9176L352.158 77.2031L352.443 76.9176L358.152 71.1904L363.86 65.4633L364.145 65.1777L364.43 65.4633L370.138 71.1904L375.847 76.9176L376.131 77.2031L376.416 76.9176L382.125 71.1904L387.833 65.4633L387.975 65.3205Z" stroke="#DBDDEA" stroke-miterlimit="10"/>
<path fill-rule="evenodd" clip-rule="evenodd" d="M387.975 89.3791L387.975 89.0935L387.833 88.9508L382.125 83.2236L376.416 77.4965L376.131 77.2104L375.847 77.4965L370.138 83.2236L364.43 88.9508L364.145 89.2363L363.86 88.9508L358.152 83.2236L352.443 77.4965L352.158 77.2104L351.874 77.4965L346.166 83.2236L340.457 88.9508L340.172 89.2363L339.887 88.9508L334.179 83.2236L328.47 77.4965L328.186 77.2104L327.901 77.4965L322.193 83.2236L316.484 88.9508L316.199 89.2363L315.915 88.9508L310.206 83.2236L304.497 77.4965L304.213 77.2104L303.928 77.4965L298.22 83.2236L292.511 88.9508L292.226 89.2363L291.942 88.9508L286.233 83.2236L280.525 77.4965L280.24 77.2104L279.955 77.4965L274.247 83.2236L268.539 88.9508L268.254 89.2363L267.969 88.9508L262.26 83.2236L256.552 77.4965L256.267 77.2104L255.982 77.4965L250.274 83.2236L244.566 88.9508L244.281 89.2363L243.996 88.9508L238.287 83.2236L232.579 77.4965L232.294 77.2104L232.01 77.4965L226.301 83.2236L220.593 88.9508L220.308 89.2363L220.023 88.9508L214.314 83.2236L208.606 77.4965L208.321 77.2104L208.037 77.4965L202.329 83.2236L196.62 88.9508L196.335 89.2363L196.05 88.9508L194.025 86.9185L194.025 88.0608L195.196 89.2363L194.025 90.4114L194.025 91.5537L196.05 89.5219L196.335 89.2363L196.62 89.5219L202.329 95.249L208.037 100.976L208.321 101.262L208.606 100.976L214.314 95.249L220.023 89.5219L220.308 89.2363L220.593 89.5219L226.301 95.249L232.01 100.976L232.294 101.262L232.579 100.976L238.287 95.249L243.996 89.5219L244.281 89.2363L244.566 89.5219L250.274 95.249L255.982 100.976L256.267 101.262L256.552 100.976L262.26 95.249L267.969 89.5219L268.254 89.2363L268.539 89.5219L274.247 95.249L279.955 100.976L280.24 101.262L280.525 100.976L286.233 95.249L291.942 89.5219L292.226 89.2363L292.511 89.5219L298.22 95.249L303.928 100.976L304.213 101.262L304.497 100.976L310.206 95.249L315.915 89.5219L316.199 89.2363L316.484 89.5219L322.193 95.249L327.901 100.976L328.186 101.262L328.47 100.976L334.179 95.249L339.887 89.5219L340.172 89.2363L340.457 89.5219L346.166 95.249L351.874 100.976L352.158 101.262L352.443 100.976L358.152 95.249L363.86 89.5219L364.145 89.2363L364.43 89.5219L370.138 95.249L375.847 100.976L376.131 101.262L376.416 100.976L382.125 95.249L387.833 89.5219L387.975 89.3791Z" stroke="#DBDDEA" stroke-miterlimit="10"/>
<path fill-rule="evenodd" clip-rule="evenodd" d="M387.975 113.438L387.975 113.152L387.833 113.009L382.125 107.282L376.416 101.555L376.131 101.269L375.847 101.555L370.138 107.282L364.43 113.009L364.145 113.295L363.86 113.009L358.152 107.282L352.443 101.555L352.158 101.269L351.874 101.555L346.166 107.282L340.457 113.009L340.172 113.295L339.887 113.009L334.179 107.282L328.47 101.555L328.186 101.269L327.901 101.555L322.193 107.282L316.484 113.009L316.199 113.295L315.915 113.009L310.206 107.282L304.497 101.555L304.213 101.269L303.928 101.555L298.22 107.282L292.511 113.009L292.226 113.295L291.942 113.009L286.233 107.282L280.525 101.555L280.24 101.269L279.955 101.555L274.247 107.282L268.539 113.009L268.254 113.295L267.969 113.009L262.26 107.282L256.552 101.555L256.267 101.269L255.982 101.555L250.274 107.282L244.566 113.009L244.281 113.295L243.996 113.009L238.287 107.282L232.579 101.555L232.294 101.269L232.01 101.555L226.301 107.282L220.593 113.009L220.308 113.295L220.023 113.009L214.314 107.282L208.606 101.555L208.321 101.269L208.037 101.555L202.329 107.282L196.62 113.009L196.335 113.295L196.05 113.009L194.025 110.977L194.025 112.119L195.196 113.295L194.025 114.47L194.025 115.612L196.05 113.58L196.335 113.295L196.62 113.58L202.329 119.308L208.037 125.035L208.321 125.32L208.606 125.035L214.314 119.308L220.023 113.58L220.308 113.295L220.593 113.58L226.301 119.308L232.01 125.035L232.294 125.32L232.579 125.035L238.287 119.308L243.996 113.58L244.281 113.295L244.566 113.58L250.274 119.308L255.982 125.035L256.267 125.32L256.552 125.035L262.26 119.308L267.969 113.58L268.254 113.295L268.539 113.58L274.247 119.308L279.955 125.035L280.24 125.32L280.525 125.035L286.233 119.308L291.942 113.581L292.226 113.295L292.511 113.581L298.22 119.308L303.928 125.035L304.213 125.32L304.497 125.035L310.206 119.308L315.915 113.581L316.199 113.295L316.484 113.581L322.193 119.308L327.901 125.035L328.186 125.32L328.47 125.035L334.179 119.308L339.887 113.581L340.172 113.295L340.457 113.581L346.166 119.308L351.874 125.035L352.158 125.32L352.443 125.035L358.152 119.308L363.86 113.581L364.145 113.295L364.43 113.581L370.138 119.308L375.847 125.035L376.131 125.32L376.416 125.035L382.125 119.308L387.833 113.581L387.975 113.438Z" stroke="#DBDDEA" stroke-miterlimit="10"/>
<path fill-rule="evenodd" clip-rule="evenodd" d="M387.975 137.496L387.975 137.211L387.833 137.068L382.125 131.341L376.416 125.614L376.131 125.328L375.847 125.614L370.138 131.341L364.43 137.068L364.145 137.354L363.86 137.068L358.152 131.341L352.443 125.614L352.158 125.328L351.874 125.614L346.166 131.341L340.457 137.068L340.172 137.354L339.887 137.068L334.179 131.341L328.47 125.614L328.186 125.328L327.901 125.614L322.193 131.341L316.484 137.068L316.199 137.354L315.915 137.068L310.206 131.341L304.497 125.614L304.213 125.328L303.928 125.614L298.22 131.341L292.511 137.068L292.226 137.354L291.942 137.068L286.233 131.341L280.525 125.614L280.24 125.328L279.955 125.614L274.247 131.341L268.539 137.068L268.254 137.354L267.969 137.068L262.26 131.341L256.552 125.614L256.267 125.328L255.982 125.614L250.274 131.341L244.566 137.068L244.281 137.354L243.996 137.068L238.287 131.341L232.579 125.614L232.294 125.328L232.01 125.614L226.301 131.341L220.593 137.068L220.308 137.354L220.023 137.068L214.314 131.341L208.606 125.614L208.321 125.328L208.037 125.614L202.329 131.341L196.62 137.068L196.335 137.354L196.05 137.068L194.025 135.036L194.025 136.178L195.196 137.354L194.025 138.529L194.025 139.671L196.05 137.639L196.335 137.354L196.62 137.639L202.329 143.366L208.037 149.093L208.321 149.379L208.606 149.093L214.314 143.366L220.023 137.639L220.308 137.354L220.593 137.639L226.301 143.366L232.01 149.093L232.294 149.379L232.579 149.093L238.287 143.366L243.996 137.639L244.281 137.354L244.566 137.639L250.274 143.366L255.982 149.093L256.267 149.379L256.552 149.093L262.26 143.366L267.969 137.639L268.254 137.354L268.539 137.639L274.247 143.366L279.955 149.093L280.24 149.379L280.525 149.093L286.233 143.366L291.942 137.639L292.226 137.354L292.511 137.639L298.22 143.366L303.928 149.093L304.213 149.379L304.497 149.093L310.206 143.366L315.915 137.639L316.199 137.354L316.484 137.639L322.193 143.366L327.901 149.093L328.186 149.379L328.47 149.093L334.179 143.366L339.887 137.639L340.172 137.354L340.457 137.639L346.166 143.366L351.874 149.093L352.158 149.379L352.443 149.093L358.152 143.366L363.86 137.639L364.145 137.354L364.43 137.639L370.138 143.366L375.847 149.093L376.131 149.379L376.416 149.093L382.125 143.366L387.833 137.639L387.975 137.496Z" stroke="#DBDDEA" stroke-miterlimit="10"/>
<path fill-rule="evenodd" clip-rule="evenodd" d="M387.975 161.555L387.975 161.269L387.833 161.127L382.125 155.399L376.416 149.672L376.131 149.386L375.847 149.672L370.138 155.399L364.43 161.127L364.145 161.412L363.86 161.127L358.152 155.399L352.443 149.672L352.158 149.386L351.874 149.672L346.166 155.399L340.457 161.127L340.172 161.412L339.887 161.127L334.179 155.399L328.47 149.672L328.186 149.386L327.901 149.672L322.193 155.399L316.484 161.127L316.199 161.412L315.915 161.127L310.206 155.399L304.497 149.672L304.213 149.386L303.928 149.672L298.22 155.399L292.511 161.127L292.226 161.412L291.942 161.127L286.233 155.399L280.525 149.672L280.24 149.386L279.955 149.672L274.247 155.399L268.539 161.127L268.254 161.412L267.969 161.127L262.26 155.399L256.552 149.672L256.267 149.386L255.982 149.672L250.274 155.399L244.566 161.127L244.281 161.412L243.996 161.127L238.287 155.399L232.579 149.672L232.294 149.386L232.01 149.672L226.301 155.399L220.593 161.127L220.308 161.412L220.023 161.127L214.314 155.399L208.606 149.672L208.321 149.386L208.037 149.672L202.329 155.399L196.62 161.127L196.335 161.412L196.05 161.127L194.025 159.094L194.025 160.237L195.196 161.412L194.025 162.587L194.025 163.729L196.05 161.698L196.335 161.412L196.62 161.698L202.329 167.425L208.037 173.152L208.321 173.438L208.606 173.152L214.314 167.425L220.023 161.698L220.308 161.412L220.593 161.698L226.301 167.425L232.01 173.152L232.294 173.438L232.579 173.152L238.287 167.425L243.996 161.698L244.281 161.412L244.566 161.698L250.274 167.425L255.982 173.152L256.267 173.438L256.552 173.152L262.26 167.425L267.969 161.698L268.254 161.412L268.539 161.698L274.247 167.425L279.955 173.152L280.24 173.438L280.525 173.152L286.233 167.425L291.942 161.698L292.226 161.412L292.511 161.698L298.22 167.425L303.928 173.152L304.213 173.438L304.497 173.152L310.206 167.425L315.915 161.698L316.199 161.412L316.484 161.698L322.193 167.425L327.901 173.152L328.186 173.438L328.47 173.152L334.179 167.425L339.887 161.698L340.172 161.412L340.457 161.698L346.166 167.425L351.874 173.152L352.158 173.438L352.443 173.152L358.152 167.425L363.86 161.698L364.145 161.412L364.43 161.698L370.138 167.425L375.847 173.152L376.131 173.438L376.416 173.152L382.125 167.425L387.833 161.698L387.975 161.555Z" stroke="#DBDDEA" stroke-miterlimit="10"/>
<path fill-rule="evenodd" clip-rule="evenodd" d="M387.975 185.614L387.975 185.328L387.833 185.185L382.125 179.458L376.416 173.731L376.131 173.445L375.847 173.731L370.138 179.458L364.43 185.185L364.145 185.471L363.86 185.185L358.152 179.458L352.443 173.731L352.158 173.445L351.874 173.731L346.166 179.458L340.457 185.185L340.172 185.471L339.887 185.185L334.179 179.458L328.47 173.731L328.186 173.445L327.901 173.731L322.193 179.458L316.484 185.185L316.199 185.471L315.915 185.185L310.206 179.458L304.497 173.731L304.213 173.445L303.928 173.731L298.22 179.458L292.511 185.185L292.226 185.471L291.942 185.185L286.233 179.458L280.525 173.731L280.24 173.445L279.955 173.731L274.247 179.458L268.539 185.185L268.254 185.471L267.969 185.185L262.26 179.458L256.552 173.731L256.267 173.445L255.982 173.731L250.274 179.458L244.566 185.185L244.281 185.471L243.996 185.185L238.287 179.458L232.579 173.731L232.294 173.445L232.01 173.731L226.301 179.458L220.593 185.185L220.308 185.471L220.023 185.185L214.314 179.458L208.606 173.731L208.321 173.445L208.037 173.731L202.329 179.458L196.62 185.185L196.335 185.471L196.05 185.185L194.025 183.153L194.025 184.295L195.196 185.471L194.025 186.646L194.025 187.788L196.05 185.756L196.335 185.471L196.62 185.756L202.329 191.483L208.037 197.211L208.321 197.496L208.606 197.211L214.314 191.483L220.023 185.756L220.308 185.471L220.593 185.756L226.301 191.483L232.01 197.211L232.294 197.496L232.579 197.211L238.287 191.483L243.996 185.756L244.281 185.471L244.566 185.756L250.274 191.483L255.982 197.211L256.267 197.496L256.552 197.211L262.26 191.483L267.969 185.756L268.254 185.471L268.539 185.756L274.247 191.483L279.955 197.211L280.24 197.496L280.525 197.211L286.233 191.483L291.942 185.756L292.226 185.471L292.511 185.756L298.22 191.483L303.928 197.211L304.213 197.496L304.497 197.211L310.206 191.483L315.915 185.756L316.199 185.471L316.484 185.756L322.193 191.483L327.901 197.211L328.186 197.496L328.47 197.211L334.179 191.483L339.887 185.756L340.172 185.471L340.457 185.756L346.166 191.483L351.874 197.211L352.158 197.496L352.443 197.211L358.152 191.483L363.86 185.756L364.145 185.471L364.43 185.756L370.138 191.483L375.847 197.211L376.131 197.496L376.416 197.211L382.125 191.483L387.833 185.756L387.975 185.614Z" stroke="#DBDDEA" stroke-miterlimit="10"/>
<path fill-rule="evenodd" clip-rule="evenodd" d="M387.975 209.672L387.975 209.387L387.833 209.244L382.125 203.517L376.416 197.789L376.131 197.503L375.847 197.789L370.138 203.517L364.43 209.244L364.145 209.529L363.86 209.244L358.152 203.517L352.443 197.789L352.158 197.503L351.874 197.789L346.166 203.517L340.457 209.244L340.172 209.529L339.887 209.244L334.179 203.517L328.47 197.789L328.186 197.503L327.901 197.789L322.193 203.517L316.484 209.244L316.199 209.529L315.915 209.244L310.206 203.517L304.497 197.789L304.213 197.503L303.928 197.789L298.22 203.517L292.511 209.244L292.226 209.529L291.942 209.244L286.233 203.517L280.525 197.789L280.24 197.503L279.955 197.789L274.247 203.517L268.539 209.244L268.254 209.529L267.969 209.244L262.26 203.517L256.552 197.789L256.267 197.503L255.982 197.789L250.274 203.517L244.566 209.244L244.281 209.529L243.996 209.244L238.287 203.517L232.579 197.789L232.294 197.503L232.01 197.789L226.301 203.517L220.593 209.244L220.308 209.529L220.023 209.244L214.314 203.517L208.606 197.789L208.321 197.503L208.037 197.789L202.329 203.517L196.62 209.244L196.335 209.529L196.05 209.244L194.025 207.211L194.025 208.354L195.196 209.529L194.025 210.704L194.025 211.847L196.05 209.815L196.335 209.529L196.62 209.815L202.329 215.542L208.037 221.269L208.321 221.555L208.606 221.269L214.314 215.542L220.023 209.815L220.308 209.529L220.593 209.815L226.301 215.542L232.01 221.269L232.294 221.555L232.579 221.269L238.287 215.542L243.996 209.815L244.281 209.529L244.566 209.815L250.274 215.542L255.982 221.269L256.267 221.555L256.552 221.269L262.26 215.542L267.969 209.815L268.254 209.529L268.539 209.815L274.247 215.542L279.955 221.269L280.24 221.555L280.525 221.269L286.233 215.542L291.942 209.815L292.226 209.529L292.511 209.815L298.22 215.542L303.928 221.269L304.213 221.555L304.497 221.269L310.206 215.542L315.915 209.815L316.199 209.529L316.484 209.815L322.193 215.542L327.901 221.269L328.186 221.555L328.47 221.269L334.179 215.542L339.887 209.815L340.172 209.529L340.457 209.815L346.166 215.542L351.874 221.269L352.158 221.555L352.443 221.269L358.152 215.542L363.86 209.815L364.145 209.529L364.43 209.815L370.138 215.542L375.847 221.269L376.131 221.555L376.416 221.269L382.125 215.542L387.833 209.815L387.975 209.672Z" stroke="#DBDDEA" stroke-miterlimit="10"/>
<path fill-rule="evenodd" clip-rule="evenodd" d="M387.975 233.731L387.975 233.446L387.833 233.303L382.125 227.576L376.416 221.849L376.131 221.562L375.847 221.849L370.138 227.576L364.43 233.303L364.145 233.588L363.86 233.303L358.152 227.576L352.443 221.849L352.158 221.562L351.874 221.849L346.166 227.576L340.457 233.303L340.172 233.588L339.887 233.303L334.179 227.576L328.47 221.849L328.186 221.562L327.901 221.849L322.193 227.576L316.484 233.303L316.199 233.588L315.915 233.303L310.206 227.576L304.497 221.849L304.213 221.562L303.928 221.849L298.22 227.576L292.511 233.303L292.226 233.588L291.942 233.303L286.233 227.576L280.525 221.849L280.24 221.562L279.955 221.849L274.247 227.576L268.539 233.303L268.254 233.588L267.969 233.303L262.26 227.576L256.552 221.849L256.267 221.562L255.982 221.849L250.274 227.576L244.566 233.303L244.281 233.588L243.996 233.303L238.287 227.576L232.579 221.849L232.294 221.562L232.01 221.849L226.301 227.576L220.593 233.303L220.308 233.588L220.023 233.303L214.314 227.576L208.606 221.849L208.321 221.562L208.037 221.849L202.329 227.576L196.62 233.303L196.335 233.588L196.05 233.303L194.025 231.271L194.025 232.413L195.196 233.588L194.025 234.763L194.025 235.906L196.05 233.874L196.335 233.588L196.62 233.874L202.329 239.601L208.037 245.328L208.321 245.614L208.606 245.328L214.314 239.601L220.023 233.874L220.308 233.588L220.593 233.874L226.301 239.601L232.01 245.328L232.294 245.614L232.579 245.328L238.287 239.601L243.996 233.874L244.281 233.588L244.566 233.874L250.274 239.601L255.982 245.328L256.267 245.614L256.552 245.328L262.26 239.601L267.969 233.874L268.254 233.588L268.539 233.874L274.247 239.601L279.955 245.328L280.24 245.614L280.525 245.328L286.233 239.601L291.942 233.874L292.226 233.588L292.511 233.874L298.22 239.601L303.928 245.328L304.213 245.614L304.497 245.328L310.206 239.601L315.915 233.874L316.199 233.588L316.484 233.874L322.193 239.601L327.901 245.328L328.186 245.614L328.47 245.328L334.179 239.601L339.887 233.874L340.172 233.588L340.457 233.874L346.166 239.601L351.874 245.328L352.158 245.614L352.443 245.328L358.152 239.601L363.86 233.874L364.145 233.588L364.43 233.874L370.138 239.601L375.847 245.328L376.131 245.614L376.416 245.328L382.125 239.601L387.833 233.874L387.975 233.731Z" stroke="#DBDDEA" stroke-miterlimit="10"/>
<path fill-rule="evenodd" clip-rule="evenodd" d="M387.975 257.79L387.975 257.504L387.833 257.361L382.125 251.634L376.416 245.907L376.131 245.621L375.847 245.907L370.138 251.634L364.43 257.361L364.145 257.647L363.86 257.361L358.152 251.634L352.443 245.907L352.158 245.621L351.874 245.907L346.166 251.634L340.457 257.361L340.172 257.647L339.887 257.361L334.179 251.634L328.47 245.907L328.186 245.621L327.901 245.907L322.193 251.634L316.484 257.361L316.199 257.647L315.915 257.361L310.206 251.634L304.497 245.907L304.213 245.621L303.928 245.907L298.22 251.634L292.511 257.361L292.226 257.647L291.942 257.361L286.233 251.634L280.525 245.907L280.24 245.621L279.955 245.907L274.247 251.634L268.539 257.361L268.254 257.647L267.969 257.361L262.26 251.634L256.552 245.907L256.267 245.621L255.982 245.907L250.274 251.634L244.566 257.361L244.281 257.647L243.996 257.361L238.287 251.634L232.579 245.907L232.294 245.621L232.01 245.907L226.301 251.634L220.593 257.361L220.308 257.647L220.023 257.361L214.314 251.634L208.606 245.907L208.321 245.621L208.037 245.907L202.329 251.634L196.62 257.361L196.335 257.647L196.05 257.361L194.025 255.329L194.025 256.471L195.196 257.647L194.025 258.822L194.025 259.964L196.05 257.933L196.335 257.647L196.62 257.933L202.329 263.66L208.037 269.387L208.321 269.672L208.606 269.387L214.314 263.66L220.023 257.933L220.308 257.647L220.593 257.933L226.301 263.66L232.01 269.387L232.294 269.672L232.579 269.387L238.287 263.66L243.996 257.933L244.281 257.647L244.566 257.933L250.274 263.66L255.982 269.387L256.267 269.672L256.552 269.387L262.26 263.66L267.969 257.933L268.254 257.647L268.539 257.933L274.247 263.66L279.955 269.387L280.24 269.672L280.525 269.387L286.233 263.66L291.942 257.933L292.226 257.647L292.511 257.933L298.22 263.66L303.928 269.387L304.213 269.672L304.497 269.387L310.206 263.66L315.915 257.933L316.199 257.647L316.484 257.933L322.193 263.66L327.901 269.387L328.186 269.672L328.47 269.387L334.179 263.66L339.887 257.933L340.172 257.647L340.457 257.933L346.166 263.66L351.874 269.387L352.158 269.672L352.443 269.387L358.152 263.66L363.86 257.933L364.145 257.647L364.43 257.933L370.138 263.66L375.847 269.387L376.131 269.672L376.416 269.387L382.125 263.66L387.833 257.933L387.975 257.79Z" stroke="#DBDDEA" stroke-miterlimit="10"/>
<path fill-rule="evenodd" clip-rule="evenodd" d="M387.975 281.848L387.975 281.563L387.833 281.42L382.125 275.693L376.416 269.966L376.131 269.68L375.847 269.966L370.138 275.693L364.43 281.42L364.145 281.706L363.86 281.42L358.152 275.693L352.443 269.966L352.158 269.68L351.874 269.966L346.166 275.693L340.457 281.42L340.172 281.706L339.887 281.42L334.179 275.693L328.47 269.966L328.186 269.68L327.901 269.966L322.193 275.693L316.484 281.42L316.199 281.706L315.915 281.42L310.206 275.693L304.497 269.966L304.213 269.68L303.928 269.966L298.22 275.693L292.511 281.42L292.226 281.706L291.942 281.42L286.233 275.693L280.525 269.966L280.24 269.68L279.955 269.966L274.247 275.693L268.539 281.42L268.254 281.706L267.969 281.42L262.26 275.693L256.552 269.966L256.267 269.68L255.982 269.966L250.274 275.693L244.566 281.42L244.281 281.706L243.996 281.42L238.287 275.693L232.579 269.966L232.294 269.68L232.01 269.966L226.301 275.693L220.593 281.42L220.308 281.706L220.023 281.42L214.314 275.693L208.606 269.966L208.321 269.68L208.037 269.966L202.329 275.693L196.62 281.42L196.335 281.706L196.05 281.42L194.025 279.388L194.025 280.53L195.196 281.706L194.025 282.881L194.025 284.023L196.05 281.991L196.335 281.706L196.62 281.991L202.329 287.718L208.037 293.445L208.321 293.731L208.606 293.445L214.314 287.718L220.023 281.991L220.308 281.706L220.593 281.991L226.301 287.718L232.01 293.445L232.294 293.731L232.579 293.445L238.287 287.718L243.996 281.991L244.281 281.706L244.566 281.991L250.274 287.718L255.982 293.445L256.267 293.731L256.552 293.445L262.26 287.718L267.969 281.991L268.254 281.706L268.539 281.991L274.247 287.718L279.955 293.445L280.24 293.731L280.525 293.445L286.233 287.718L291.942 281.991L292.226 281.706L292.511 281.991L298.22 287.718L303.928 293.445L304.213 293.731L304.497 293.445L310.206 287.718L315.915 281.991L316.199 281.706L316.484 281.991L322.193 287.718L327.901 293.445L328.186 293.731L328.47 293.445L334.179 287.718L339.887 281.991L340.172 281.706L340.457 281.991L346.166 287.718L351.874 293.445L352.158 293.731L352.443 293.445L358.152 287.718L363.86 281.991L364.145 281.706L364.43 281.991L370.138 287.718L375.847 293.445L376.131 293.731L376.416 293.445L382.125 287.718L387.833 281.991L387.975 281.848Z" stroke="#DBDDEA" stroke-miterlimit="10"/>
<path fill-rule="evenodd" clip-rule="evenodd" d="M387.975 305.907L387.975 305.621L387.833 305.479L382.125 299.751L376.416 294.024L376.131 293.738L375.847 294.024L370.138 299.751L364.43 305.479L364.145 305.764L363.86 305.479L358.152 299.751L352.443 294.024L352.158 293.738L351.874 294.024L346.166 299.751L340.457 305.479L340.172 305.764L339.887 305.479L334.179 299.751L328.47 294.024L328.186 293.738L327.901 294.024L322.193 299.751L316.484 305.479L316.199 305.764L315.915 305.479L310.206 299.751L304.497 294.024L304.213 293.738L303.928 294.024L298.22 299.751L292.511 305.479L292.226 305.764L291.942 305.479L286.233 299.751L280.525 294.024L280.24 293.738L279.955 294.024L274.247 299.751L268.539 305.479L268.254 305.764L267.969 305.479L262.26 299.751L256.552 294.024L256.267 293.738L255.982 294.024L250.274 299.751L244.566 305.479L244.281 305.764L243.996 305.479L238.287 299.751L232.579 294.024L232.294 293.738L232.01 294.024L226.301 299.751L220.593 305.479L220.308 305.764L220.023 305.479L214.314 299.751L208.606 294.024L208.321 293.738L208.037 294.024L202.329 299.751L196.62 305.479L196.335 305.764L196.05 305.479L194.025 303.446L194.025 304.589L195.196 305.764L194.025 306.939L194.025 308.082L196.05 306.05L196.335 305.764L196.62 306.05L202.329 311.777L208.037 317.504L208.321 317.79L208.606 317.504L214.314 311.777L220.023 306.05L220.308 305.764L220.593 306.05L226.301 311.777L232.01 317.504L232.294 317.79L232.579 317.504L238.287 311.777L243.996 306.05L244.281 305.764L244.566 306.05L250.274 311.777L255.982 317.504L256.267 317.79L256.552 317.504L262.26 311.777L267.969 306.05L268.254 305.764L268.539 306.05L274.247 311.777L279.955 317.504L280.24 317.79L280.525 317.504L286.233 311.777L291.942 306.05L292.226 305.764L292.511 306.05L298.22 311.777L303.928 317.504L304.213 317.79L304.497 317.504L310.206 311.777L315.915 306.05L316.199 305.764L316.484 306.05L322.193 311.777L327.901 317.504L328.186 317.79L328.47 317.504L334.179 311.777L339.887 306.05L340.172 305.764L340.457 306.05L346.166 311.777L351.874 317.504L352.158 317.79L352.443 317.504L358.152 311.777L363.86 306.05L364.145 305.764L364.43 306.05L370.138 311.777L375.847 317.504L376.131 317.79L376.416 317.504L382.125 311.777L387.833 306.05L387.975 305.907Z" stroke="#DBDDEA" stroke-miterlimit="10"/>
<path fill-rule="evenodd" clip-rule="evenodd" d="M387.975 329.966L387.975 329.68L387.833 329.537L382.125 323.81L376.416 318.083L376.131 317.797L375.847 318.083L370.138 323.81L364.43 329.537L364.145 329.823L363.86 329.537L358.152 323.81L352.443 318.083L352.158 317.797L351.874 318.083L346.166 323.81L340.457 329.537L340.172 329.823L339.887 329.537L334.179 323.81L328.47 318.083L328.186 317.797L327.901 318.083L322.193 323.81L316.484 329.537L316.199 329.823L315.915 329.537L310.206 323.81L304.497 318.083L304.213 317.797L303.928 318.083L298.22 323.81L292.511 329.537L292.226 329.823L291.942 329.537L286.233 323.81L280.525 318.083L280.24 317.797L279.955 318.083L274.247 323.81L268.539 329.537L268.254 329.823L267.969 329.537L262.26 323.81L256.552 318.083L256.267 317.797L255.982 318.083L250.274 323.81L244.566 329.537L244.281 329.823L243.996 329.537L238.287 323.81L232.579 318.083L232.294 317.797L232.01 318.083L226.301 323.81L220.593 329.537L220.308 329.823L220.023 329.537L214.314 323.81L208.606 318.083L208.321 317.797L208.037 318.083L202.329 323.81L196.62 329.537L196.335 329.823L196.05 329.537L194.025 327.505L194.025 328.647L195.196 329.823L194.025 330.998L194.025 332.14L196.05 330.108L196.335 329.823L196.62 330.108L202.329 335.835L208.037 341.563L208.321 341.848L208.606 341.563L214.314 335.835L220.023 330.108L220.308 329.823L220.593 330.108L226.301 335.835L232.01 341.563L232.294 341.848L232.579 341.563L238.287 335.835L243.996 330.108L244.281 329.823L244.566 330.108L250.274 335.835L255.982 341.563L256.267 341.848L256.552 341.563L262.26 335.835L267.969 330.108L268.254 329.823L268.539 330.108L274.247 335.835L279.955 341.563L280.24 341.848L280.525 341.563L286.233 335.835L291.942 330.108L292.226 329.823L292.511 330.108L298.22 335.835L303.928 341.563L304.213 341.848L304.497 341.563L310.206 335.835L315.915 330.108L316.199 329.823L316.484 330.108L322.193 335.835L327.901 341.563L328.186 341.848L328.47 341.563L334.179 335.835L339.887 330.108L340.172 329.823L340.457 330.108L346.166 335.835L351.874 341.563L352.158 341.848L352.443 341.563L358.152 335.835L363.86 330.108L364.145 329.823L364.43 330.108L370.138 335.835L375.847 341.563L376.131 341.848L376.416 341.563L382.125 335.835L387.833 330.108L387.975 329.966Z" stroke="#DBDDEA" stroke-miterlimit="10"/>
</g>
<g clip-path="url(#clip2_160_1498)">
<path fill-rule="evenodd" clip-rule="evenodd" d="M581.975 17.2033L581.975 16.9178L581.833 16.775L576.125 11.0479L570.416 5.32073L570.131 5.03467L569.847 5.32073L564.138 11.0479L558.43 16.775L558.145 17.0606L557.86 16.775L552.152 11.0479L546.443 5.32073L546.158 5.03467L545.874 5.32073L540.166 11.0479L534.457 16.775L534.172 17.0606L533.887 16.775L528.179 11.0479L522.47 5.32073L522.186 5.03467L521.901 5.32073L516.193 11.0479L510.484 16.775L510.199 17.0606L509.915 16.775L504.206 11.0479L498.497 5.32073L498.213 5.03466L497.928 5.32073L492.22 11.0479L486.511 16.775L486.226 17.0605L485.942 16.775L480.233 11.0479L474.525 5.32073L474.24 5.03466L473.955 5.32073L468.247 11.0479L462.539 16.775L462.254 17.0605L461.969 16.775L456.26 11.0479L450.552 5.32073L450.267 5.03466L449.982 5.32073L444.274 11.0478L438.566 16.775L438.281 17.0605L437.996 16.775L432.287 11.0478L426.579 5.32072L426.294 5.03466L426.01 5.32072L420.301 11.0478L414.593 16.775L414.308 17.0605L414.023 16.775L408.314 11.0478L402.606 5.32072L402.321 5.03466L402.037 5.32072L396.329 11.0478L390.62 16.775L390.335 17.0605L390.05 16.775L388.025 14.7427L388.025 15.885L389.196 17.0605L388.025 18.2356L388.025 19.3779L390.05 17.3461L390.335 17.0605L390.62 17.3461L396.329 23.0732L402.037 28.8004L402.321 29.0859L402.606 28.8004L408.314 23.0732L414.023 17.3461L414.308 17.0605L414.593 17.3461L420.301 23.0732L426.01 28.8004L426.294 29.0859L426.579 28.8004L432.287 23.0732L437.996 17.3461L438.281 17.0605L438.566 17.3461L444.274 23.0732L449.982 28.8004L450.267 29.0859L450.552 28.8004L456.26 23.0732L461.969 17.3461L462.254 17.0605L462.539 17.3461L468.247 23.0732L473.955 28.8004L474.24 29.0859L474.525 28.8004L480.233 23.0732L485.942 17.3461L486.226 17.0605L486.511 17.3461L492.22 23.0732L497.928 28.8004L498.213 29.0859L498.497 28.8004L504.206 23.0733L509.915 17.3461L510.199 17.0606L510.484 17.3461L516.193 23.0733L521.901 28.8004L522.186 29.0859L522.47 28.8004L528.179 23.0733L533.887 17.3461L534.172 17.0606L534.457 17.3461L540.166 23.0733L545.874 28.8004L546.158 29.086L546.443 28.8004L552.152 23.0733L557.86 17.3461L558.145 17.0606L558.43 17.3461L564.138 23.0733L569.847 28.8004L570.131 29.086L570.416 28.8004L576.125 23.0733L581.833 17.3461L581.975 17.2033Z" stroke="#DBDDEA" stroke-miterlimit="10"/>
<path fill-rule="evenodd" clip-rule="evenodd" d="M581.975 41.2619L581.975 40.9764L581.833 40.8336L576.125 35.1064L570.416 29.3793L570.131 29.0933L569.847 29.3793L564.138 35.1064L558.43 40.8336L558.145 41.1191L557.86 40.8336L552.152 35.1064L546.443 29.3793L546.158 29.0933L545.874 29.3793L540.166 35.1064L534.457 40.8336L534.172 41.1191L533.887 40.8336L528.179 35.1064L522.47 29.3793L522.186 29.0933L521.901 29.3793L516.193 35.1064L510.484 40.8336L510.199 41.1191L509.915 40.8336L504.206 35.1064L498.497 29.3793L498.213 29.0933L497.928 29.3793L492.22 35.1064L486.511 40.8336L486.226 41.1191L485.942 40.8336L480.233 35.1064L474.525 29.3793L474.24 29.0933L473.955 29.3793L468.247 35.1064L462.539 40.8336L462.254 41.1191L461.969 40.8336L456.26 35.1064L450.552 29.3793L450.267 29.0933L449.982 29.3793L444.274 35.1064L438.566 40.8336L438.281 41.1191L437.996 40.8336L432.287 35.1064L426.579 29.3793L426.294 29.0933L426.01 29.3793L420.301 35.1064L414.593 40.8336L414.308 41.1191L414.023 40.8336L408.314 35.1064L402.606 29.3793L402.321 29.0933L402.037 29.3793L396.329 35.1064L390.62 40.8336L390.335 41.1191L390.05 40.8336L388.025 38.8013L388.025 39.9436L389.196 41.1191L388.025 42.2942L388.025 43.4365L390.05 41.4047L390.335 41.1191L390.62 41.4047L396.329 47.1318L402.037 52.859L402.321 53.1445L402.606 52.859L408.314 47.1318L414.023 41.4047L414.308 41.1191L414.593 41.4047L420.301 47.1318L426.01 52.859L426.294 53.1445L426.579 52.859L432.287 47.1318L437.996 41.4047L438.281 41.1191L438.566 41.4047L444.274 47.1318L449.982 52.859L450.267 53.1445L450.552 52.859L456.26 47.1318L461.969 41.4047L462.254 41.1191L462.539 41.4047L468.247 47.1318L473.955 52.859L474.24 53.1445L474.525 52.859L480.233 47.1318L485.942 41.4047L486.226 41.1191L486.511 41.4047L492.22 47.1318L497.928 52.859L498.213 53.1445L498.497 52.859L504.206 47.1318L509.915 41.4047L510.199 41.1191L510.484 41.4047L516.193 47.1318L521.901 52.859L522.186 53.1445L522.47 52.859L528.179 47.1318L533.887 41.4047L534.172 41.1191L534.457 41.4047L540.166 47.1318L545.874 52.859L546.158 53.1445L546.443 52.859L552.152 47.1318L557.86 41.4047L558.145 41.1191L558.43 41.4047L564.138 47.1318L569.847 52.859L570.131 53.1445L570.416 52.859L576.125 47.1318L581.833 41.4047L581.975 41.2619Z" stroke="#DBDDEA" stroke-miterlimit="10"/>
<path fill-rule="evenodd" clip-rule="evenodd" d="M581.975 65.3205L581.975 65.035L581.833 64.8922L576.125 59.165L570.416 53.4379L570.131 53.1519L569.847 53.4379L564.138 59.165L558.43 64.8922L558.145 65.1777L557.86 64.8922L552.152 59.165L546.443 53.4379L546.158 53.1519L545.874 53.4379L540.166 59.165L534.457 64.8922L534.172 65.1777L533.887 64.8922L528.179 59.165L522.47 53.4379L522.186 53.1519L521.901 53.4379L516.193 59.165L510.484 64.8922L510.199 65.1777L509.915 64.8922L504.206 59.165L498.497 53.4379L498.213 53.1519L497.928 53.4379L492.22 59.165L486.511 64.8922L486.226 65.1777L485.942 64.8922L480.233 59.165L474.525 53.4379L474.24 53.1519L473.955 53.4379L468.247 59.165L462.539 64.8922L462.254 65.1777L461.969 64.8922L456.26 59.165L450.552 53.4379L450.267 53.1518L449.982 53.4379L444.274 59.165L438.566 64.8922L438.281 65.1777L437.996 64.8922L432.287 59.165L426.579 53.4379L426.294 53.1518L426.01 53.4379L420.301 59.165L414.593 64.8922L414.308 65.1777L414.023 64.8922L408.314 59.165L402.606 53.4379L402.321 53.1518L402.037 53.4379L396.329 59.165L390.62 64.8922L390.335 65.1777L390.05 64.8922L388.025 62.8599L388.025 64.0022L389.196 65.1777L388.025 66.3528L388.025 67.4951L390.05 65.4633L390.335 65.1777L390.62 65.4633L396.329 71.1904L402.037 76.9176L402.321 77.2031L402.606 76.9176L408.314 71.1904L414.023 65.4633L414.308 65.1777L414.593 65.4633L420.301 71.1904L426.01 76.9176L426.294 77.2031L426.579 76.9176L432.287 71.1904L437.996 65.4633L438.281 65.1777L438.566 65.4633L444.274 71.1904L449.982 76.9176L450.267 77.2031L450.552 76.9176L456.26 71.1904L461.969 65.4633L462.254 65.1777L462.539 65.4633L468.247 71.1904L473.955 76.9176L474.24 77.2031L474.525 76.9176L480.233 71.1904L485.942 65.4633L486.226 65.1777L486.511 65.4633L492.22 71.1904L497.928 76.9176L498.213 77.2031L498.497 76.9176L504.206 71.1904L509.915 65.4633L510.199 65.1777L510.484 65.4633L516.193 71.1904L521.901 76.9176L522.186 77.2031L522.47 76.9176L528.179 71.1904L533.887 65.4633L534.172 65.1777L534.457 65.4633L540.166 71.1904L545.874 76.9176L546.158 77.2031L546.443 76.9176L552.152 71.1904L557.86 65.4633L558.145 65.1777L558.43 65.4633L564.138 71.1904L569.847 76.9176L570.131 77.2031L570.416 76.9176L576.125 71.1904L581.833 65.4633L581.975 65.3205Z" stroke="#DBDDEA" stroke-miterlimit="10"/>
<path fill-rule="evenodd" clip-rule="evenodd" d="M581.975 89.3791L581.975 89.0935L581.833 88.9508L576.125 83.2236L570.416 77.4965L570.131 77.2104L569.847 77.4965L564.138 83.2236L558.43 88.9508L558.145 89.2363L557.86 88.9508L552.152 83.2236L546.443 77.4965L546.158 77.2104L545.874 77.4965L540.166 83.2236L534.457 88.9508L534.172 89.2363L533.887 88.9508L528.179 83.2236L522.47 77.4965L522.186 77.2104L521.901 77.4965L516.193 83.2236L510.484 88.9508L510.199 89.2363L509.915 88.9508L504.206 83.2236L498.497 77.4965L498.213 77.2104L497.928 77.4965L492.22 83.2236L486.511 88.9508L486.226 89.2363L485.942 88.9508L480.233 83.2236L474.525 77.4965L474.24 77.2104L473.955 77.4965L468.247 83.2236L462.539 88.9508L462.254 89.2363L461.969 88.9508L456.26 83.2236L450.552 77.4965L450.267 77.2104L449.982 77.4965L444.274 83.2236L438.566 88.9508L438.281 89.2363L437.996 88.9508L432.287 83.2236L426.579 77.4965L426.294 77.2104L426.01 77.4965L420.301 83.2236L414.593 88.9508L414.308 89.2363L414.023 88.9508L408.314 83.2236L402.606 77.4965L402.321 77.2104L402.037 77.4965L396.329 83.2236L390.62 88.9508L390.335 89.2363L390.05 88.9508L388.025 86.9185L388.025 88.0608L389.196 89.2363L388.025 90.4114L388.025 91.5537L390.05 89.5219L390.335 89.2363L390.62 89.5219L396.329 95.249L402.037 100.976L402.321 101.262L402.606 100.976L408.314 95.249L414.023 89.5219L414.308 89.2363L414.593 89.5219L420.301 95.249L426.01 100.976L426.294 101.262L426.579 100.976L432.287 95.249L437.996 89.5219L438.281 89.2363L438.566 89.5219L444.274 95.249L449.982 100.976L450.267 101.262L450.552 100.976L456.26 95.249L461.969 89.5219L462.254 89.2363L462.539 89.5219L468.247 95.249L473.955 100.976L474.24 101.262L474.525 100.976L480.233 95.249L485.942 89.5219L486.226 89.2363L486.511 89.5219L492.22 95.249L497.928 100.976L498.213 101.262L498.497 100.976L504.206 95.249L509.915 89.5219L510.199 89.2363L510.484 89.5219L516.193 95.249L521.901 100.976L522.186 101.262L522.47 100.976L528.179 95.249L533.887 89.5219L534.172 89.2363L534.457 89.5219L540.166 95.249L545.874 100.976L546.158 101.262L546.443 100.976L552.152 95.249L557.86 89.5219L558.145 89.2363L558.43 89.5219L564.138 95.249L569.847 100.976L570.131 101.262L570.416 100.976L576.125 95.249L581.833 89.5219L581.975 89.3791Z" stroke="#DBDDEA" stroke-miterlimit="10"/>
<path fill-rule="evenodd" clip-rule="evenodd" d="M581.975 113.438L581.975 113.152L581.833 113.009L576.125 107.282L570.416 101.555L570.131 101.269L569.847 101.555L564.138 107.282L558.43 113.009L558.145 113.295L557.86 113.009L552.152 107.282L546.443 101.555L546.158 101.269L545.874 101.555L540.166 107.282L534.457 113.009L534.172 113.295L533.887 113.009L528.179 107.282L522.47 101.555L522.186 101.269L521.901 101.555L516.193 107.282L510.484 113.009L510.199 113.295L509.915 113.009L504.206 107.282L498.497 101.555L498.213 101.269L497.928 101.555L492.22 107.282L486.511 113.009L486.226 113.295L485.942 113.009L480.233 107.282L474.525 101.555L474.24 101.269L473.955 101.555L468.247 107.282L462.539 113.009L462.254 113.295L461.969 113.009L456.26 107.282L450.552 101.555L450.267 101.269L449.982 101.555L444.274 107.282L438.566 113.009L438.281 113.295L437.996 113.009L432.287 107.282L426.579 101.555L426.294 101.269L426.01 101.555L420.301 107.282L414.593 113.009L414.308 113.295L414.023 113.009L408.314 107.282L402.606 101.555L402.321 101.269L402.037 101.555L396.329 107.282L390.62 113.009L390.335 113.295L390.05 113.009L388.025 110.977L388.025 112.119L389.196 113.295L388.025 114.47L388.025 115.612L390.05 113.58L390.335 113.295L390.62 113.58L396.329 119.308L402.037 125.035L402.321 125.32L402.606 125.035L408.314 119.308L414.023 113.58L414.308 113.295L414.593 113.58L420.301 119.308L426.01 125.035L426.294 125.32L426.579 125.035L432.287 119.308L437.996 113.58L438.281 113.295L438.566 113.58L444.274 119.308L449.982 125.035L450.267 125.32L450.552 125.035L456.26 119.308L461.969 113.58L462.254 113.295L462.539 113.58L468.247 119.308L473.955 125.035L474.24 125.32L474.525 125.035L480.233 119.308L485.942 113.581L486.226 113.295L486.511 113.581L492.22 119.308L497.928 125.035L498.213 125.32L498.497 125.035L504.206 119.308L509.915 113.581L510.199 113.295L510.484 113.581L516.193 119.308L521.901 125.035L522.186 125.32L522.47 125.035L528.179 119.308L533.887 113.581L534.172 113.295L534.457 113.581L540.166 119.308L545.874 125.035L546.158 125.32L546.443 125.035L552.152 119.308L557.86 113.581L558.145 113.295L558.43 113.581L564.138 119.308L569.847 125.035L570.131 125.32L570.416 125.035L576.125 119.308L581.833 113.581L581.975 113.438Z" stroke="#DBDDEA" stroke-miterlimit="10"/>
<path fill-rule="evenodd" clip-rule="evenodd" d="M581.975 137.496L581.975 137.211L581.833 137.068L576.125 131.341L570.416 125.614L570.131 125.328L569.847 125.614L564.138 131.341L558.43 137.068L558.145 137.354L557.86 137.068L552.152 131.341L546.443 125.614L546.158 125.328L545.874 125.614L540.166 131.341L534.457 137.068L534.172 137.354L533.887 137.068L528.179 131.341L522.47 125.614L522.186 125.328L521.901 125.614L516.193 131.341L510.484 137.068L510.199 137.354L509.915 137.068L504.206 131.341L498.497 125.614L498.213 125.328L497.928 125.614L492.22 131.341L486.511 137.068L486.226 137.354L485.942 137.068L480.233 131.341L474.525 125.614L474.24 125.328L473.955 125.614L468.247 131.341L462.539 137.068L462.254 137.354L461.969 137.068L456.26 131.341L450.552 125.614L450.267 125.328L449.982 125.614L444.274 131.341L438.566 137.068L438.281 137.354L437.996 137.068L432.287 131.341L426.579 125.614L426.294 125.328L426.01 125.614L420.301 131.341L414.593 137.068L414.308 137.354L414.023 137.068L408.314 131.341L402.606 125.614L402.321 125.328L402.037 125.614L396.329 131.341L390.62 137.068L390.335 137.354L390.05 137.068L388.025 135.036L388.025 136.178L389.196 137.354L388.025 138.529L388.025 139.671L390.05 137.639L390.335 137.354L390.62 137.639L396.329 143.366L402.037 149.093L402.321 149.379L402.606 149.093L408.314 143.366L414.023 137.639L414.308 137.354L414.593 137.639L420.301 143.366L426.01 149.093L426.294 149.379L426.579 149.093L432.287 143.366L437.996 137.639L438.281 137.354L438.566 137.639L444.274 143.366L449.982 149.093L450.267 149.379L450.552 149.093L456.26 143.366L461.969 137.639L462.254 137.354L462.539 137.639L468.247 143.366L473.955 149.093L474.24 149.379L474.525 149.093L480.233 143.366L485.942 137.639L486.226 137.354L486.511 137.639L492.22 143.366L497.928 149.093L498.213 149.379L498.497 149.093L504.206 143.366L509.915 137.639L510.199 137.354L510.484 137.639L516.193 143.366L521.901 149.093L522.186 149.379L522.47 149.093L528.179 143.366L533.887 137.639L534.172 137.354L534.457 137.639L540.166 143.366L545.874 149.093L546.158 149.379L546.443 149.093L552.152 143.366L557.86 137.639L558.145 137.354L558.43 137.639L564.138 143.366L569.847 149.093L570.131 149.379L570.416 149.093L576.125 143.366L581.833 137.639L581.975 137.496Z" stroke="#DBDDEA" stroke-miterlimit="10"/>
<path fill-rule="evenodd" clip-rule="evenodd" d="M581.975 161.555L581.975 161.269L581.833 161.127L576.125 155.399L570.416 149.672L570.131 149.386L569.847 149.672L564.138 155.399L558.43 161.127L558.145 161.412L557.86 161.127L552.152 155.399L546.443 149.672L546.158 149.386L545.874 149.672L540.166 155.399L534.457 161.127L534.172 161.412L533.887 161.127L528.179 155.399L522.47 149.672L522.186 149.386L521.901 149.672L516.193 155.399L510.484 161.127L510.199 161.412L509.915 161.127L504.206 155.399L498.497 149.672L498.213 149.386L497.928 149.672L492.22 155.399L486.511 161.127L486.226 161.412L485.942 161.127L480.233 155.399L474.525 149.672L474.24 149.386L473.955 149.672L468.247 155.399L462.539 161.127L462.254 161.412L461.969 161.127L456.26 155.399L450.552 149.672L450.267 149.386L449.982 149.672L444.274 155.399L438.566 161.127L438.281 161.412L437.996 161.127L432.287 155.399L426.579 149.672L426.294 149.386L426.01 149.672L420.301 155.399L414.593 161.127L414.308 161.412L414.023 161.127L408.314 155.399L402.606 149.672L402.321 149.386L402.037 149.672L396.329 155.399L390.62 161.127L390.335 161.412L390.05 161.127L388.025 159.094L388.025 160.237L389.196 161.412L388.025 162.587L388.025 163.729L390.05 161.698L390.335 161.412L390.62 161.698L396.329 167.425L402.037 173.152L402.321 173.438L402.606 173.152L408.314 167.425L414.023 161.698L414.308 161.412L414.593 161.698L420.301 167.425L426.01 173.152L426.294 173.438L426.579 173.152L432.287 167.425L437.996 161.698L438.281 161.412L438.566 161.698L444.274 167.425L449.982 173.152L450.267 173.438L450.552 173.152L456.26 167.425L461.969 161.698L462.254 161.412L462.539 161.698L468.247 167.425L473.955 173.152L474.24 173.438L474.525 173.152L480.233 167.425L485.942 161.698L486.226 161.412L486.511 161.698L492.22 167.425L497.928 173.152L498.213 173.438L498.497 173.152L504.206 167.425L509.915 161.698L510.199 161.412L510.484 161.698L516.193 167.425L521.901 173.152L522.186 173.438L522.47 173.152L528.179 167.425L533.887 161.698L534.172 161.412L534.457 161.698L540.166 167.425L545.874 173.152L546.158 173.438L546.443 173.152L552.152 167.425L557.86 161.698L558.145 161.412L558.43 161.698L564.138 167.425L569.847 173.152L570.131 173.438L570.416 173.152L576.125 167.425L581.833 161.698L581.975 161.555Z" stroke="#DBDDEA" stroke-miterlimit="10"/>
<path fill-rule="evenodd" clip-rule="evenodd" d="M581.975 185.614L581.975 185.328L581.833 185.185L576.125 179.458L570.416 173.731L570.131 173.445L569.847 173.731L564.138 179.458L558.43 185.185L558.145 185.471L557.86 185.185L552.152 179.458L546.443 173.731L546.158 173.445L545.874 173.731L540.166 179.458L534.457 185.185L534.172 185.471L533.887 185.185L528.179 179.458L522.47 173.731L522.186 173.445L521.901 173.731L516.193 179.458L510.484 185.185L510.199 185.471L509.915 185.185L504.206 179.458L498.497 173.731L498.213 173.445L497.928 173.731L492.22 179.458L486.511 185.185L486.226 185.471L485.942 185.185L480.233 179.458L474.525 173.731L474.24 173.445L473.955 173.731L468.247 179.458L462.539 185.185L462.254 185.471L461.969 185.185L456.26 179.458L450.552 173.731L450.267 173.445L449.982 173.731L444.274 179.458L438.566 185.185L438.281 185.471L437.996 185.185L432.287 179.458L426.579 173.731L426.294 173.445L426.01 173.731L420.301 179.458L414.593 185.185L414.308 185.471L414.023 185.185L408.314 179.458L402.606 173.731L402.321 173.445L402.037 173.731L396.329 179.458L390.62 185.185L390.335 185.471L390.05 185.185L388.025 183.153L388.025 184.295L389.196 185.471L388.025 186.646L388.025 187.788L390.05 185.756L390.335 185.471L390.62 185.756L396.329 191.483L402.037 197.211L402.321 197.496L402.606 197.211L408.314 191.483L414.023 185.756L414.308 185.471L414.593 185.756L420.301 191.483L426.01 197.211L426.294 197.496L426.579 197.211L432.287 191.483L437.996 185.756L438.281 185.471L438.566 185.756L444.274 191.483L449.982 197.211L450.267 197.496L450.552 197.211L456.26 191.483L461.969 185.756L462.254 185.471L462.539 185.756L468.247 191.483L473.955 197.211L474.24 197.496L474.525 197.211L480.233 191.483L485.942 185.756L486.226 185.471L486.511 185.756L492.22 191.483L497.928 197.211L498.213 197.496L498.497 197.211L504.206 191.483L509.915 185.756L510.199 185.471L510.484 185.756L516.193 191.483L521.901 197.211L522.186 197.496L522.47 197.211L528.179 191.483L533.887 185.756L534.172 185.471L534.457 185.756L540.166 191.483L545.874 197.211L546.158 197.496L546.443 197.211L552.152 191.483L557.86 185.756L558.145 185.471L558.43 185.756L564.138 191.483L569.847 197.211L570.131 197.496L570.416 197.211L576.125 191.483L581.833 185.756L581.975 185.614Z" stroke="#DBDDEA" stroke-miterlimit="10"/>
<path fill-rule="evenodd" clip-rule="evenodd" d="M581.975 209.672L581.975 209.387L581.833 209.244L576.125 203.517L570.416 197.789L570.131 197.503L569.847 197.789L564.138 203.517L558.43 209.244L558.145 209.529L557.86 209.244L552.152 203.517L546.443 197.789L546.158 197.503L545.874 197.789L540.166 203.517L534.457 209.244L534.172 209.529L533.887 209.244L528.179 203.517L522.47 197.789L522.186 197.503L521.901 197.789L516.193 203.517L510.484 209.244L510.199 209.529L509.915 209.244L504.206 203.517L498.497 197.789L498.213 197.503L497.928 197.789L492.22 203.517L486.511 209.244L486.226 209.529L485.942 209.244L480.233 203.517L474.525 197.789L474.24 197.503L473.955 197.789L468.247 203.517L462.539 209.244L462.254 209.529L461.969 209.244L456.26 203.517L450.552 197.789L450.267 197.503L449.982 197.789L444.274 203.517L438.566 209.244L438.281 209.529L437.996 209.244L432.287 203.517L426.579 197.789L426.294 197.503L426.01 197.789L420.301 203.517L414.593 209.244L414.308 209.529L414.023 209.244L408.314 203.517L402.606 197.789L402.321 197.503L402.037 197.789L396.329 203.517L390.62 209.244L390.335 209.529L390.05 209.244L388.025 207.211L388.025 208.354L389.196 209.529L388.025 210.704L388.025 211.847L390.05 209.815L390.335 209.529L390.62 209.815L396.329 215.542L402.037 221.269L402.321 221.555L402.606 221.269L408.314 215.542L414.023 209.815L414.308 209.529L414.593 209.815L420.301 215.542L426.01 221.269L426.294 221.555L426.579 221.269L432.287 215.542L437.996 209.815L438.281 209.529L438.566 209.815L444.274 215.542L449.982 221.269L450.267 221.555L450.552 221.269L456.26 215.542L461.969 209.815L462.254 209.529L462.539 209.815L468.247 215.542L473.955 221.269L474.24 221.555L474.525 221.269L480.233 215.542L485.942 209.815L486.226 209.529L486.511 209.815L492.22 215.542L497.928 221.269L498.213 221.555L498.497 221.269L504.206 215.542L509.915 209.815L510.199 209.529L510.484 209.815L516.193 215.542L521.901 221.269L522.186 221.555L522.47 221.269L528.179 215.542L533.887 209.815L534.172 209.529L534.457 209.815L540.166 215.542L545.874 221.269L546.158 221.555L546.443 221.269L552.152 215.542L557.86 209.815L558.145 209.529L558.43 209.815L564.138 215.542L569.847 221.269L570.131 221.555L570.416 221.269L576.125 215.542L581.833 209.815L581.975 209.672Z" stroke="#DBDDEA" stroke-miterlimit="10"/>
<path fill-rule="evenodd" clip-rule="evenodd" d="M581.975 233.731L581.975 233.446L581.833 233.303L576.125 227.576L570.416 221.849L570.131 221.562L569.847 221.849L564.138 227.576L558.43 233.303L558.145 233.588L557.86 233.303L552.152 227.576L546.443 221.849L546.158 221.562L545.874 221.849L540.166 227.576L534.457 233.303L534.172 233.588L533.887 233.303L528.179 227.576L522.47 221.849L522.186 221.562L521.901 221.849L516.193 227.576L510.484 233.303L510.199 233.588L509.915 233.303L504.206 227.576L498.497 221.849L498.213 221.562L497.928 221.849L492.22 227.576L486.511 233.303L486.226 233.588L485.942 233.303L480.233 227.576L474.525 221.849L474.24 221.562L473.955 221.849L468.247 227.576L462.539 233.303L462.254 233.588L461.969 233.303L456.26 227.576L450.552 221.849L450.267 221.562L449.982 221.849L444.274 227.576L438.566 233.303L438.281 233.588L437.996 233.303L432.287 227.576L426.579 221.849L426.294 221.562L426.01 221.849L420.301 227.576L414.593 233.303L414.308 233.588L414.023 233.303L408.314 227.576L402.606 221.849L402.321 221.562L402.037 221.849L396.329 227.576L390.62 233.303L390.335 233.588L390.05 233.303L388.025 231.271L388.025 232.413L389.196 233.588L388.025 234.763L388.025 235.906L390.05 233.874L390.335 233.588L390.62 233.874L396.329 239.601L402.037 245.328L402.321 245.614L402.606 245.328L408.314 239.601L414.023 233.874L414.308 233.588L414.593 233.874L420.301 239.601L426.01 245.328L426.294 245.614L426.579 245.328L432.287 239.601L437.996 233.874L438.281 233.588L438.566 233.874L444.274 239.601L449.982 245.328L450.267 245.614L450.552 245.328L456.26 239.601L461.969 233.874L462.254 233.588L462.539 233.874L468.247 239.601L473.955 245.328L474.24 245.614L474.525 245.328L480.233 239.601L485.942 233.874L486.226 233.588L486.511 233.874L492.22 239.601L497.928 245.328L498.213 245.614L498.497 245.328L504.206 239.601L509.915 233.874L510.199 233.588L510.484 233.874L516.193 239.601L521.901 245.328L522.186 245.614L522.47 245.328L528.179 239.601L533.887 233.874L534.172 233.588L534.457 233.874L540.166 239.601L545.874 245.328L546.158 245.614L546.443 245.328L552.152 239.601L557.86 233.874L558.145 233.588L558.43 233.874L564.138 239.601L569.847 245.328L570.131 245.614L570.416 245.328L576.125 239.601L581.833 233.874L581.975 233.731Z" stroke="#DBDDEA" stroke-miterlimit="10"/>
<path fill-rule="evenodd" clip-rule="evenodd" d="M581.975 257.79L581.975 257.504L581.833 257.361L576.125 251.634L570.416 245.907L570.131 245.621L569.847 245.907L564.138 251.634L558.43 257.361L558.145 257.647L557.86 257.361L552.152 251.634L546.443 245.907L546.158 245.621L545.874 245.907L540.166 251.634L534.457 257.361L534.172 257.647L533.887 257.361L528.179 251.634L522.47 245.907L522.186 245.621L521.901 245.907L516.193 251.634L510.484 257.361L510.199 257.647L509.915 257.361L504.206 251.634L498.497 245.907L498.213 245.621L497.928 245.907L492.22 251.634L486.511 257.361L486.226 257.647L485.942 257.361L480.233 251.634L474.525 245.907L474.24 245.621L473.955 245.907L468.247 251.634L462.539 257.361L462.254 257.647L461.969 257.361L456.26 251.634L450.552 245.907L450.267 245.621L449.982 245.907L444.274 251.634L438.566 257.361L438.281 257.647L437.996 257.361L432.287 251.634L426.579 245.907L426.294 245.621L426.01 245.907L420.301 251.634L414.593 257.361L414.308 257.647L414.023 257.361L408.314 251.634L402.606 245.907L402.321 245.621L402.037 245.907L396.329 251.634L390.62 257.361L390.335 257.647L390.05 257.361L388.025 255.329L388.025 256.471L389.196 257.647L388.025 258.822L388.025 259.964L390.05 257.933L390.335 257.647L390.62 257.933L396.329 263.66L402.037 269.387L402.321 269.672L402.606 269.387L408.314 263.66L414.023 257.933L414.308 257.647L414.593 257.933L420.301 263.66L426.01 269.387L426.294 269.672L426.579 269.387L432.287 263.66L437.996 257.933L438.281 257.647L438.566 257.933L444.274 263.66L449.982 269.387L450.267 269.672L450.552 269.387L456.26 263.66L461.969 257.933L462.254 257.647L462.539 257.933L468.247 263.66L473.955 269.387L474.24 269.672L474.525 269.387L480.233 263.66L485.942 257.933L486.226 257.647L486.511 257.933L492.22 263.66L497.928 269.387L498.213 269.672L498.497 269.387L504.206 263.66L509.915 257.933L510.199 257.647L510.484 257.933L516.193 263.66L521.901 269.387L522.186 269.672L522.47 269.387L528.179 263.66L533.887 257.933L534.172 257.647L534.457 257.933L540.166 263.66L545.874 269.387L546.158 269.672L546.443 269.387L552.152 263.66L557.86 257.933L558.145 257.647L558.43 257.933L564.138 263.66L569.847 269.387L570.131 269.672L570.416 269.387L576.125 263.66L581.833 257.933L581.975 257.79Z" stroke="#DBDDEA" stroke-miterlimit="10"/>
<path fill-rule="evenodd" clip-rule="evenodd" d="M581.975 281.848L581.975 281.563L581.833 281.42L576.125 275.693L570.416 269.966L570.131 269.68L569.847 269.966L564.138 275.693L558.43 281.42L558.145 281.706L557.86 281.42L552.152 275.693L546.443 269.966L546.158 269.68L545.874 269.966L540.166 275.693L534.457 281.42L534.172 281.706L533.887 281.42L528.179 275.693L522.47 269.966L522.186 269.68L521.901 269.966L516.193 275.693L510.484 281.42L510.199 281.706L509.915 281.42L504.206 275.693L498.497 269.966L498.213 269.68L497.928 269.966L492.22 275.693L486.511 281.42L486.226 281.706L485.942 281.42L480.233 275.693L474.525 269.966L474.24 269.68L473.955 269.966L468.247 275.693L462.539 281.42L462.254 281.706L461.969 281.42L456.26 275.693L450.552 269.966L450.267 269.68L449.982 269.966L444.274 275.693L438.566 281.42L438.281 281.706L437.996 281.42L432.287 275.693L426.579 269.966L426.294 269.68L426.01 269.966L420.301 275.693L414.593 281.42L414.308 281.706L414.023 281.42L408.314 275.693L402.606 269.966L402.321 269.68L402.037 269.966L396.329 275.693L390.62 281.42L390.335 281.706L390.05 281.42L388.025 279.388L388.025 280.53L389.196 281.706L388.025 282.881L388.025 284.023L390.05 281.991L390.335 281.706L390.62 281.991L396.329 287.718L402.037 293.445L402.321 293.731L402.606 293.445L408.314 287.718L414.023 281.991L414.308 281.706L414.593 281.991L420.301 287.718L426.01 293.445L426.294 293.731L426.579 293.445L432.287 287.718L437.996 281.991L438.281 281.706L438.566 281.991L444.274 287.718L449.982 293.445L450.267 293.731L450.552 293.445L456.26 287.718L461.969 281.991L462.254 281.706L462.539 281.991L468.247 287.718L473.955 293.445L474.24 293.731L474.525 293.445L480.233 287.718L485.942 281.991L486.226 281.706L486.511 281.991L492.22 287.718L497.928 293.445L498.213 293.731L498.497 293.445L504.206 287.718L509.915 281.991L510.199 281.706L510.484 281.991L516.193 287.718L521.901 293.445L522.186 293.731L522.47 293.445L528.179 287.718L533.887 281.991L534.172 281.706L534.457 281.991L540.166 287.718L545.874 293.445L546.158 293.731L546.443 293.445L552.152 287.718L557.86 281.991L558.145 281.706L558.43 281.991L564.138 287.718L569.847 293.445L570.131 293.731L570.416 293.445L576.125 287.718L581.833 281.991L581.975 281.848Z" stroke="#DBDDEA" stroke-miterlimit="10"/>
<path fill-rule="evenodd" clip-rule="evenodd" d="M581.975 305.907L581.975 305.621L581.833 305.479L576.125 299.751L570.416 294.024L570.131 293.738L569.847 294.024L564.138 299.751L558.43 305.479L558.145 305.764L557.86 305.479L552.152 299.751L546.443 294.024L546.158 293.738L545.874 294.024L540.166 299.751L534.457 305.479L534.172 305.764L533.887 305.479L528.179 299.751L522.47 294.024L522.186 293.738L521.901 294.024L516.193 299.751L510.484 305.479L510.199 305.764L509.915 305.479L504.206 299.751L498.497 294.024L498.213 293.738L497.928 294.024L492.22 299.751L486.511 305.479L486.226 305.764L485.942 305.479L480.233 299.751L474.525 294.024L474.24 293.738L473.955 294.024L468.247 299.751L462.539 305.479L462.254 305.764L461.969 305.479L456.26 299.751L450.552 294.024L450.267 293.738L449.982 294.024L444.274 299.751L438.566 305.479L438.281 305.764L437.996 305.479L432.287 299.751L426.579 294.024L426.294 293.738L426.01 294.024L420.301 299.751L414.593 305.479L414.308 305.764L414.023 305.479L408.314 299.751L402.606 294.024L402.321 293.738L402.037 294.024L396.329 299.751L390.62 305.479L390.335 305.764L390.05 305.479L388.025 303.446L388.025 304.589L389.196 305.764L388.025 306.939L388.025 308.082L390.05 306.05L390.335 305.764L390.62 306.05L396.329 311.777L402.037 317.504L402.321 317.79L402.606 317.504L408.314 311.777L414.023 306.05L414.308 305.764L414.593 306.05L420.301 311.777L426.01 317.504L426.294 317.79L426.579 317.504L432.287 311.777L437.996 306.05L438.281 305.764L438.566 306.05L444.274 311.777L449.982 317.504L450.267 317.79L450.552 317.504L456.26 311.777L461.969 306.05L462.254 305.764L462.539 306.05L468.247 311.777L473.955 317.504L474.24 317.79L474.525 317.504L480.233 311.777L485.942 306.05L486.226 305.764L486.511 306.05L492.22 311.777L497.928 317.504L498.213 317.79L498.497 317.504L504.206 311.777L509.915 306.05L510.199 305.764L510.484 306.05L516.193 311.777L521.901 317.504L522.186 317.79L522.47 317.504L528.179 311.777L533.887 306.05L534.172 305.764L534.457 306.05L540.166 311.777L545.874 317.504L546.158 317.79L546.443 317.504L552.152 311.777L557.86 306.05L558.145 305.764L558.43 306.05L564.138 311.777L569.847 317.504L570.131 317.79L570.416 317.504L576.125 311.777L581.833 306.05L581.975 305.907Z" stroke="#DBDDEA" stroke-miterlimit="10"/>
<path fill-rule="evenodd" clip-rule="evenodd" d="M581.975 329.966L581.975 329.68L581.833 329.537L576.125 323.81L570.416 318.083L570.131 317.797L569.847 318.083L564.138 323.81L558.43 329.537L558.145 329.823L557.86 329.537L552.152 323.81L546.443 318.083L546.158 317.797L545.874 318.083L540.166 323.81L534.457 329.537L534.172 329.823L533.887 329.537L528.179 323.81L522.47 318.083L522.186 317.797L521.901 318.083L516.193 323.81L510.484 329.537L510.199 329.823L509.915 329.537L504.206 323.81L498.497 318.083L498.213 317.797L497.928 318.083L492.22 323.81L486.511 329.537L486.226 329.823L485.942 329.537L480.233 323.81L474.525 318.083L474.24 317.797L473.955 318.083L468.247 323.81L462.539 329.537L462.254 329.823L461.969 329.537L456.26 323.81L450.552 318.083L450.267 317.797L449.982 318.083L444.274 323.81L438.566 329.537L438.281 329.823L437.996 329.537L432.287 323.81L426.579 318.083L426.294 317.797L426.01 318.083L420.301 323.81L414.593 329.537L414.308 329.823L414.023 329.537L408.314 323.81L402.606 318.083L402.321 317.797L402.037 318.083L396.329 323.81L390.62 329.537L390.335 329.823L390.05 329.537L388.025 327.505L388.025 328.647L389.196 329.823L388.025 330.998L388.025 332.14L390.05 330.108L390.335 329.823L390.62 330.108L396.329 335.835L402.037 341.563L402.321 341.848L402.606 341.563L408.314 335.835L414.023 330.108L414.308 329.823L414.593 330.108L420.301 335.835L426.01 341.563L426.294 341.848L426.579 341.563L432.287 335.835L437.996 330.108L438.281 329.823L438.566 330.108L444.274 335.835L449.982 341.563L450.267 341.848L450.552 341.563L456.26 335.835L461.969 330.108L462.254 329.823L462.539 330.108L468.247 335.835L473.955 341.563L474.24 341.848L474.525 341.563L480.233 335.835L485.942 330.108L486.226 329.823L486.511 330.108L492.22 335.835L497.928 341.563L498.213 341.848L498.497 341.563L504.206 335.835L509.915 330.108L510.199 329.823L510.484 330.108L516.193 335.835L521.901 341.563L522.186 341.848L522.47 341.563L528.179 335.835L533.887 330.108L534.172 329.823L534.457 330.108L540.166 335.835L545.874 341.563L546.158 341.848L546.443 341.563L552.152 335.835L557.86 330.108L558.145 329.823L558.43 330.108L564.138 335.835L569.847 341.563L570.131 341.848L570.416 341.563L576.125 335.835L581.833 330.108L581.975 329.966Z" stroke="#DBDDEA" stroke-miterlimit="10"/>
</g>
<g clip-path="url(#clip3_160_1498)">
<path fill-rule="evenodd" clip-rule="evenodd" d="M193.975 17.2033L193.975 16.9178L193.833 16.775L188.125 11.0479L182.416 5.32073L182.131 5.03467L181.847 5.32073L176.138 11.0479L170.43 16.775L170.145 17.0606L169.86 16.775L164.152 11.0479L158.443 5.32073L158.158 5.03467L157.874 5.32073L152.166 11.0479L146.457 16.775L146.172 17.0606L145.887 16.775L140.179 11.0479L134.47 5.32073L134.186 5.03467L133.901 5.32073L128.193 11.0479L122.484 16.775L122.199 17.0606L121.915 16.775L116.206 11.0479L110.497 5.32073L110.213 5.03466L109.928 5.32073L104.22 11.0479L98.5112 16.775L98.2261 17.0605L97.9416 16.775L92.233 11.0479L86.5249 5.32073L86.2399 5.03466L85.9554 5.32073L80.2472 11.0479L74.5386 16.775L74.2536 17.0605L73.9686 16.775L68.26 11.0479L62.5519 5.32073L62.2674 5.03466L61.9823 5.32073L56.2742 11.0478L50.5656 16.775L50.2806 17.0605L49.9961 16.775L44.2875 11.0478L38.5789 5.32072L38.2943 5.03466L38.0098 5.32072L32.3012 11.0478L26.5926 16.775L26.3076 17.0605L26.0231 16.775L20.3145 11.0478L14.6059 5.32072L14.3213 5.03466L14.0368 5.32072L8.32869 11.0478L2.61958 16.775L2.33506 17.0605L2.05005 16.775L0.0245418 14.7427L0.0245418 15.885L1.19599 17.0605L0.0245417 18.2356L0.0245416 19.3779L2.05005 17.3461L2.33506 17.0605L2.61958 17.3461L8.32869 23.0732L14.0368 28.8004L14.3213 29.0859L14.6058 28.8004L20.3145 23.0732L26.0231 17.3461L26.3076 17.0605L26.5926 17.3461L32.3012 23.0732L38.0098 28.8004L38.2943 29.0859L38.5789 28.8004L44.2875 23.0732L49.9961 17.3461L50.2806 17.0605L50.5656 17.3461L56.2742 23.0732L61.9823 28.8004L62.2674 29.0859L62.5519 28.8004L68.26 23.0732L73.9686 17.3461L74.2536 17.0605L74.5386 17.3461L80.2472 23.0732L85.9554 28.8004L86.2399 29.0859L86.5249 28.8004L92.233 23.0732L97.9416 17.3461L98.2261 17.0605L98.5112 17.3461L104.22 23.0732L109.928 28.8004L110.213 29.0859L110.497 28.8004L116.206 23.0733L121.915 17.3461L122.199 17.0606L122.484 17.3461L128.193 23.0733L133.901 28.8004L134.186 29.0859L134.47 28.8004L140.179 23.0733L145.887 17.3461L146.172 17.0606L146.457 17.3461L152.166 23.0733L157.874 28.8004L158.158 29.086L158.443 28.8004L164.152 23.0733L169.86 17.3461L170.145 17.0606L170.43 17.3461L176.138 23.0733L181.847 28.8004L182.131 29.086L182.416 28.8004L188.125 23.0733L193.833 17.3461L193.975 17.2033Z" stroke="#DBDDEA" stroke-miterlimit="10"/>
<path fill-rule="evenodd" clip-rule="evenodd" d="M193.975 41.2619L193.975 40.9764L193.833 40.8336L188.125 35.1064L182.416 29.3793L182.131 29.0933L181.847 29.3793L176.138 35.1064L170.43 40.8336L170.145 41.1191L169.86 40.8336L164.152 35.1064L158.443 29.3793L158.158 29.0933L157.874 29.3793L152.166 35.1064L146.457 40.8336L146.172 41.1191L145.887 40.8336L140.179 35.1064L134.47 29.3793L134.186 29.0933L133.901 29.3793L128.193 35.1064L122.484 40.8336L122.199 41.1191L121.915 40.8336L116.206 35.1064L110.497 29.3793L110.213 29.0933L109.928 29.3793L104.22 35.1064L98.5112 40.8336L98.2261 41.1191L97.9416 40.8336L92.233 35.1064L86.5249 29.3793L86.2399 29.0933L85.9554 29.3793L80.2472 35.1064L74.5386 40.8336L74.2536 41.1191L73.9686 40.8336L68.26 35.1064L62.5519 29.3793L62.2674 29.0933L61.9823 29.3793L56.2742 35.1064L50.5656 40.8336L50.2806 41.1191L49.9961 40.8336L44.2875 35.1064L38.5789 29.3793L38.2943 29.0933L38.0098 29.3793L32.3012 35.1064L26.5926 40.8336L26.3076 41.1191L26.0231 40.8336L20.3145 35.1064L14.6059 29.3793L14.3213 29.0933L14.0368 29.3793L8.32869 35.1064L2.61958 40.8336L2.33506 41.1191L2.05005 40.8336L0.0245418 38.8013L0.0245418 39.9436L1.19599 41.1191L0.0245417 42.2942L0.0245416 43.4365L2.05005 41.4047L2.33506 41.1191L2.61958 41.4047L8.32869 47.1318L14.0368 52.859L14.3213 53.1445L14.6058 52.859L20.3145 47.1318L26.0231 41.4047L26.3076 41.1191L26.5926 41.4047L32.3012 47.1318L38.0098 52.859L38.2943 53.1445L38.5789 52.859L44.2875 47.1318L49.9961 41.4047L50.2806 41.1191L50.5656 41.4047L56.2742 47.1318L61.9823 52.859L62.2674 53.1445L62.5519 52.859L68.26 47.1318L73.9686 41.4047L74.2536 41.1191L74.5386 41.4047L80.2472 47.1318L85.9554 52.859L86.2399 53.1445L86.5249 52.859L92.233 47.1318L97.9416 41.4047L98.2261 41.1191L98.5112 41.4047L104.22 47.1318L109.928 52.859L110.213 53.1445L110.497 52.859L116.206 47.1318L121.915 41.4047L122.199 41.1191L122.484 41.4047L128.193 47.1318L133.901 52.859L134.186 53.1445L134.47 52.859L140.179 47.1318L145.887 41.4047L146.172 41.1191L146.457 41.4047L152.166 47.1318L157.874 52.859L158.158 53.1445L158.443 52.859L164.152 47.1318L169.86 41.4047L170.145 41.1191L170.43 41.4047L176.138 47.1318L181.847 52.859L182.131 53.1445L182.416 52.859L188.125 47.1318L193.833 41.4047L193.975 41.2619Z" stroke="#DBDDEA" stroke-miterlimit="10"/>
<path fill-rule="evenodd" clip-rule="evenodd" d="M193.975 65.3205L193.975 65.035L193.833 64.8922L188.125 59.165L182.416 53.4379L182.131 53.1519L181.847 53.4379L176.138 59.165L170.43 64.8922L170.145 65.1777L169.86 64.8922L164.152 59.165L158.443 53.4379L158.158 53.1519L157.874 53.4379L152.166 59.165L146.457 64.8922L146.172 65.1777L145.887 64.8922L140.179 59.165L134.47 53.4379L134.186 53.1519L133.901 53.4379L128.193 59.165L122.484 64.8922L122.199 65.1777L121.915 64.8922L116.206 59.165L110.497 53.4379L110.213 53.1519L109.928 53.4379L104.22 59.165L98.5112 64.8922L98.2261 65.1777L97.9416 64.8922L92.233 59.165L86.5249 53.4379L86.2399 53.1519L85.9554 53.4379L80.2472 59.165L74.5386 64.8922L74.2536 65.1777L73.9686 64.8922L68.26 59.165L62.5519 53.4379L62.2674 53.1518L61.9823 53.4379L56.2742 59.165L50.5656 64.8922L50.2806 65.1777L49.9961 64.8922L44.2875 59.165L38.5789 53.4379L38.2943 53.1518L38.0098 53.4379L32.3012 59.165L26.5926 64.8922L26.3076 65.1777L26.0231 64.8922L20.3145 59.165L14.6059 53.4379L14.3213 53.1518L14.0368 53.4379L8.32869 59.165L2.61958 64.8922L2.33506 65.1777L2.05005 64.8922L0.0245418 62.8599L0.0245418 64.0022L1.19599 65.1777L0.0245417 66.3528L0.0245416 67.4951L2.05005 65.4633L2.33506 65.1777L2.61958 65.4633L8.32869 71.1904L14.0368 76.9176L14.3213 77.2031L14.6058 76.9176L20.3145 71.1904L26.0231 65.4633L26.3076 65.1777L26.5926 65.4633L32.3012 71.1904L38.0098 76.9176L38.2943 77.2031L38.5789 76.9176L44.2875 71.1904L49.9961 65.4633L50.2806 65.1777L50.5656 65.4633L56.2742 71.1904L61.9823 76.9176L62.2674 77.2031L62.5519 76.9176L68.26 71.1904L73.9686 65.4633L74.2536 65.1777L74.5386 65.4633L80.2472 71.1904L85.9554 76.9176L86.2399 77.2031L86.5249 76.9176L92.233 71.1904L97.9416 65.4633L98.2261 65.1777L98.5112 65.4633L104.22 71.1904L109.928 76.9176L110.213 77.2031L110.497 76.9176L116.206 71.1904L121.915 65.4633L122.199 65.1777L122.484 65.4633L128.193 71.1904L133.901 76.9176L134.186 77.2031L134.47 76.9176L140.179 71.1904L145.887 65.4633L146.172 65.1777L146.457 65.4633L152.166 71.1904L157.874 76.9176L158.158 77.2031L158.443 76.9176L164.152 71.1904L169.86 65.4633L170.145 65.1777L170.43 65.4633L176.138 71.1904L181.847 76.9176L182.131 77.2031L182.416 76.9176L188.125 71.1904L193.833 65.4633L193.975 65.3205Z" stroke="#DBDDEA" stroke-miterlimit="10"/>
<path fill-rule="evenodd" clip-rule="evenodd" d="M193.975 89.3791L193.975 89.0935L193.833 88.9508L188.125 83.2236L182.416 77.4965L182.131 77.2104L181.847 77.4965L176.138 83.2236L170.43 88.9508L170.145 89.2363L169.86 88.9508L164.152 83.2236L158.443 77.4965L158.158 77.2104L157.874 77.4965L152.166 83.2236L146.457 88.9508L146.172 89.2363L145.887 88.9508L140.179 83.2236L134.47 77.4965L134.186 77.2104L133.901 77.4965L128.193 83.2236L122.484 88.9508L122.199 89.2363L121.915 88.9508L116.206 83.2236L110.497 77.4965L110.213 77.2104L109.928 77.4965L104.22 83.2236L98.5112 88.9508L98.2261 89.2363L97.9416 88.9508L92.233 83.2236L86.5249 77.4965L86.2399 77.2104L85.9554 77.4965L80.2472 83.2236L74.5386 88.9508L74.2536 89.2363L73.9686 88.9508L68.26 83.2236L62.5519 77.4965L62.2674 77.2104L61.9823 77.4965L56.2742 83.2236L50.5656 88.9508L50.2806 89.2363L49.9961 88.9508L44.2875 83.2236L38.5789 77.4965L38.2943 77.2104L38.0098 77.4965L32.3012 83.2236L26.5926 88.9508L26.3076 89.2363L26.0231 88.9508L20.3145 83.2236L14.6059 77.4965L14.3213 77.2104L14.0368 77.4965L8.32869 83.2236L2.61958 88.9508L2.33506 89.2363L2.05005 88.9508L0.0245418 86.9185L0.0245418 88.0608L1.19599 89.2363L0.0245417 90.4114L0.0245416 91.5537L2.05005 89.5219L2.33506 89.2363L2.61958 89.5219L8.32869 95.249L14.0368 100.976L14.3213 101.262L14.6058 100.976L20.3145 95.249L26.0231 89.5219L26.3076 89.2363L26.5926 89.5219L32.3012 95.249L38.0098 100.976L38.2943 101.262L38.5789 100.976L44.2875 95.249L49.9961 89.5219L50.2806 89.2363L50.5656 89.5219L56.2742 95.249L61.9823 100.976L62.2674 101.262L62.5519 100.976L68.26 95.249L73.9686 89.5219L74.2536 89.2363L74.5386 89.5219L80.2472 95.249L85.9554 100.976L86.2399 101.262L86.5249 100.976L92.233 95.249L97.9416 89.5219L98.2261 89.2363L98.5112 89.5219L104.22 95.249L109.928 100.976L110.213 101.262L110.497 100.976L116.206 95.249L121.915 89.5219L122.199 89.2363L122.484 89.5219L128.193 95.249L133.901 100.976L134.186 101.262L134.47 100.976L140.179 95.249L145.887 89.5219L146.172 89.2363L146.457 89.5219L152.166 95.249L157.874 100.976L158.158 101.262L158.443 100.976L164.152 95.249L169.86 89.5219L170.145 89.2363L170.43 89.5219L176.138 95.249L181.847 100.976L182.131 101.262L182.416 100.976L188.125 95.249L193.833 89.5219L193.975 89.3791Z" stroke="#DBDDEA" stroke-miterlimit="10"/>
<path fill-rule="evenodd" clip-rule="evenodd" d="M193.975 113.438L193.975 113.152L193.833 113.009L188.125 107.282L182.416 101.555L182.131 101.269L181.847 101.555L176.138 107.282L170.43 113.009L170.145 113.295L169.86 113.009L164.152 107.282L158.443 101.555L158.158 101.269L157.874 101.555L152.166 107.282L146.457 113.009L146.172 113.295L145.887 113.009L140.179 107.282L134.47 101.555L134.186 101.269L133.901 101.555L128.193 107.282L122.484 113.009L122.199 113.295L121.915 113.009L116.206 107.282L110.497 101.555L110.213 101.269L109.928 101.555L104.22 107.282L98.5112 113.009L98.2261 113.295L97.9416 113.009L92.233 107.282L86.5249 101.555L86.2399 101.269L85.9554 101.555L80.2472 107.282L74.5386 113.009L74.2536 113.295L73.9686 113.009L68.26 107.282L62.5519 101.555L62.2674 101.269L61.9823 101.555L56.2742 107.282L50.5656 113.009L50.2806 113.295L49.9961 113.009L44.2875 107.282L38.5789 101.555L38.2943 101.269L38.0098 101.555L32.3012 107.282L26.5926 113.009L26.3076 113.295L26.0231 113.009L20.3145 107.282L14.6059 101.555L14.3213 101.269L14.0368 101.555L8.32869 107.282L2.61958 113.009L2.33506 113.295L2.05005 113.009L0.0245418 110.977L0.0245418 112.119L1.19599 113.295L0.0245417 114.47L0.0245416 115.612L2.05005 113.58L2.33506 113.295L2.61958 113.58L8.32869 119.308L14.0368 125.035L14.3213 125.32L14.6058 125.035L20.3145 119.308L26.0231 113.58L26.3076 113.295L26.5926 113.58L32.3012 119.308L38.0098 125.035L38.2943 125.32L38.5789 125.035L44.2875 119.308L49.9961 113.58L50.2806 113.295L50.5656 113.58L56.2742 119.308L61.9823 125.035L62.2674 125.32L62.5519 125.035L68.26 119.308L73.9686 113.58L74.2536 113.295L74.5386 113.58L80.2472 119.308L85.9554 125.035L86.2399 125.32L86.5249 125.035L92.233 119.308L97.9416 113.581L98.2261 113.295L98.5112 113.581L104.22 119.308L109.928 125.035L110.213 125.32L110.497 125.035L116.206 119.308L121.915 113.581L122.199 113.295L122.484 113.581L128.193 119.308L133.901 125.035L134.186 125.32L134.47 125.035L140.179 119.308L145.887 113.581L146.172 113.295L146.457 113.581L152.166 119.308L157.874 125.035L158.158 125.32L158.443 125.035L164.152 119.308L169.86 113.581L170.145 113.295L170.43 113.581L176.138 119.308L181.847 125.035L182.131 125.32L182.416 125.035L188.125 119.308L193.833 113.581L193.975 113.438Z" stroke="#DBDDEA" stroke-miterlimit="10"/>
<path fill-rule="evenodd" clip-rule="evenodd" d="M193.975 137.496L193.975 137.211L193.833 137.068L188.125 131.341L182.416 125.614L182.131 125.328L181.847 125.614L176.138 131.341L170.43 137.068L170.145 137.354L169.86 137.068L164.152 131.341L158.443 125.614L158.158 125.328L157.874 125.614L152.166 131.341L146.457 137.068L146.172 137.354L145.887 137.068L140.179 131.341L134.47 125.614L134.186 125.328L133.901 125.614L128.193 131.341L122.484 137.068L122.199 137.354L121.915 137.068L116.206 131.341L110.497 125.614L110.213 125.328L109.928 125.614L104.22 131.341L98.5112 137.068L98.2261 137.354L97.9416 137.068L92.233 131.341L86.5249 125.614L86.2399 125.328L85.9554 125.614L80.2472 131.341L74.5386 137.068L74.2536 137.354L73.9686 137.068L68.26 131.341L62.5519 125.614L62.2674 125.328L61.9823 125.614L56.2742 131.341L50.5656 137.068L50.2806 137.354L49.9961 137.068L44.2875 131.341L38.5789 125.614L38.2943 125.328L38.0098 125.614L32.3012 131.341L26.5926 137.068L26.3076 137.354L26.0231 137.068L20.3145 131.341L14.6059 125.614L14.3213 125.328L14.0368 125.614L8.32869 131.341L2.61958 137.068L2.33506 137.354L2.05005 137.068L0.0245418 135.036L0.0245418 136.178L1.19599 137.354L0.0245417 138.529L0.0245416 139.671L2.05005 137.639L2.33506 137.354L2.61958 137.639L8.32869 143.366L14.0368 149.093L14.3213 149.379L14.6058 149.093L20.3145 143.366L26.0231 137.639L26.3076 137.354L26.5926 137.639L32.3012 143.366L38.0098 149.093L38.2943 149.379L38.5789 149.093L44.2875 143.366L49.9961 137.639L50.2806 137.354L50.5656 137.639L56.2742 143.366L61.9823 149.093L62.2674 149.379L62.5519 149.093L68.26 143.366L73.9686 137.639L74.2536 137.354L74.5386 137.639L80.2472 143.366L85.9554 149.093L86.2399 149.379L86.5249 149.093L92.233 143.366L97.9416 137.639L98.2261 137.354L98.5112 137.639L104.22 143.366L109.928 149.093L110.213 149.379L110.497 149.093L116.206 143.366L121.915 137.639L122.199 137.354L122.484 137.639L128.193 143.366L133.901 149.093L134.186 149.379L134.47 149.093L140.179 143.366L145.887 137.639L146.172 137.354L146.457 137.639L152.166 143.366L157.874 149.093L158.158 149.379L158.443 149.093L164.152 143.366L169.86 137.639L170.145 137.354L170.43 137.639L176.138 143.366L181.847 149.093L182.131 149.379L182.416 149.093L188.125 143.366L193.833 137.639L193.975 137.496Z" stroke="#DBDDEA" stroke-miterlimit="10"/>
<path fill-rule="evenodd" clip-rule="evenodd" d="M193.975 161.555L193.975 161.269L193.833 161.127L188.125 155.399L182.416 149.672L182.131 149.386L181.847 149.672L176.138 155.399L170.43 161.127L170.145 161.412L169.86 161.127L164.152 155.399L158.443 149.672L158.158 149.386L157.874 149.672L152.166 155.399L146.457 161.127L146.172 161.412L145.887 161.127L140.179 155.399L134.47 149.672L134.186 149.386L133.901 149.672L128.193 155.399L122.484 161.127L122.199 161.412L121.915 161.127L116.206 155.399L110.497 149.672L110.213 149.386L109.928 149.672L104.22 155.399L98.5112 161.127L98.2261 161.412L97.9416 161.127L92.233 155.399L86.5249 149.672L86.2399 149.386L85.9554 149.672L80.2472 155.399L74.5386 161.127L74.2536 161.412L73.9686 161.127L68.26 155.399L62.5519 149.672L62.2674 149.386L61.9823 149.672L56.2742 155.399L50.5656 161.127L50.2806 161.412L49.9961 161.127L44.2875 155.399L38.5789 149.672L38.2943 149.386L38.0098 149.672L32.3012 155.399L26.5926 161.127L26.3076 161.412L26.0231 161.127L20.3145 155.399L14.6059 149.672L14.3213 149.386L14.0368 149.672L8.32869 155.399L2.61958 161.127L2.33506 161.412L2.05005 161.127L0.0245418 159.094L0.0245418 160.237L1.19599 161.412L0.0245417 162.587L0.0245416 163.729L2.05005 161.698L2.33506 161.412L2.61958 161.698L8.32869 167.425L14.0368 173.152L14.3213 173.438L14.6058 173.152L20.3145 167.425L26.0231 161.698L26.3076 161.412L26.5926 161.698L32.3012 167.425L38.0098 173.152L38.2943 173.438L38.5789 173.152L44.2875 167.425L49.9961 161.698L50.2806 161.412L50.5656 161.698L56.2742 167.425L61.9823 173.152L62.2674 173.438L62.5519 173.152L68.26 167.425L73.9686 161.698L74.2536 161.412L74.5386 161.698L80.2472 167.425L85.9554 173.152L86.2399 173.438L86.5249 173.152L92.233 167.425L97.9416 161.698L98.2261 161.412L98.5112 161.698L104.22 167.425L109.928 173.152L110.213 173.438L110.497 173.152L116.206 167.425L121.915 161.698L122.199 161.412L122.484 161.698L128.193 167.425L133.901 173.152L134.186 173.438L134.47 173.152L140.179 167.425L145.887 161.698L146.172 161.412L146.457 161.698L152.166 167.425L157.874 173.152L158.158 173.438L158.443 173.152L164.152 167.425L169.86 161.698L170.145 161.412L170.43 161.698L176.138 167.425L181.847 173.152L182.131 173.438L182.416 173.152L188.125 167.425L193.833 161.698L193.975 161.555Z" stroke="#DBDDEA" stroke-miterlimit="10"/>
<path fill-rule="evenodd" clip-rule="evenodd" d="M193.975 185.614L193.975 185.328L193.833 185.185L188.125 179.458L182.416 173.731L182.131 173.445L181.847 173.731L176.138 179.458L170.43 185.185L170.145 185.471L169.86 185.185L164.152 179.458L158.443 173.731L158.158 173.445L157.874 173.731L152.166 179.458L146.457 185.185L146.172 185.471L145.887 185.185L140.179 179.458L134.47 173.731L134.186 173.445L133.901 173.731L128.193 179.458L122.484 185.185L122.199 185.471L121.915 185.185L116.206 179.458L110.497 173.731L110.213 173.445L109.928 173.731L104.22 179.458L98.5112 185.185L98.2261 185.471L97.9416 185.185L92.233 179.458L86.5249 173.731L86.2399 173.445L85.9554 173.731L80.2472 179.458L74.5386 185.185L74.2536 185.471L73.9686 185.185L68.26 179.458L62.5519 173.731L62.2674 173.445L61.9823 173.731L56.2742 179.458L50.5656 185.185L50.2806 185.471L49.9961 185.185L44.2875 179.458L38.5789 173.731L38.2943 173.445L38.0098 173.731L32.3012 179.458L26.5926 185.185L26.3076 185.471L26.0231 185.185L20.3145 179.458L14.6059 173.731L14.3213 173.445L14.0368 173.731L8.32869 179.458L2.61958 185.185L2.33506 185.471L2.05005 185.185L0.0245418 183.153L0.0245418 184.295L1.19599 185.471L0.0245417 186.646L0.0245416 187.788L2.05005 185.756L2.33506 185.471L2.61958 185.756L8.32869 191.483L14.0368 197.211L14.3213 197.496L14.6058 197.211L20.3145 191.483L26.0231 185.756L26.3076 185.471L26.5926 185.756L32.3012 191.483L38.0098 197.211L38.2943 197.496L38.5789 197.211L44.2875 191.483L49.9961 185.756L50.2806 185.471L50.5656 185.756L56.2742 191.483L61.9823 197.211L62.2674 197.496L62.5519 197.211L68.26 191.483L73.9686 185.756L74.2536 185.471L74.5386 185.756L80.2472 191.483L85.9554 197.211L86.2399 197.496L86.5249 197.211L92.233 191.483L97.9416 185.756L98.2261 185.471L98.5112 185.756L104.22 191.483L109.928 197.211L110.213 197.496L110.497 197.211L116.206 191.483L121.915 185.756L122.199 185.471L122.484 185.756L128.193 191.483L133.901 197.211L134.186 197.496L134.47 197.211L140.179 191.483L145.887 185.756L146.172 185.471L146.457 185.756L152.166 191.483L157.874 197.211L158.158 197.496L158.443 197.211L164.152 191.483L169.86 185.756L170.145 185.471L170.43 185.756L176.138 191.483L181.847 197.211L182.131 197.496L182.416 197.211L188.125 191.483L193.833 185.756L193.975 185.614Z" stroke="#DBDDEA" stroke-miterlimit="10"/>
<path fill-rule="evenodd" clip-rule="evenodd" d="M193.975 209.672L193.975 209.387L193.833 209.244L188.125 203.517L182.416 197.789L182.131 197.503L181.847 197.789L176.138 203.517L170.43 209.244L170.145 209.529L169.86 209.244L164.152 203.517L158.443 197.789L158.158 197.503L157.874 197.789L152.166 203.517L146.457 209.244L146.172 209.529L145.887 209.244L140.179 203.517L134.47 197.789L134.186 197.503L133.901 197.789L128.193 203.517L122.484 209.244L122.199 209.529L121.915 209.244L116.206 203.517L110.497 197.789L110.213 197.503L109.928 197.789L104.22 203.517L98.5112 209.244L98.2261 209.529L97.9416 209.244L92.233 203.517L86.5249 197.789L86.2399 197.503L85.9554 197.789L80.2472 203.517L74.5386 209.244L74.2536 209.529L73.9686 209.244L68.26 203.517L62.5519 197.789L62.2674 197.503L61.9823 197.789L56.2742 203.517L50.5656 209.244L50.2806 209.529L49.9961 209.244L44.2875 203.517L38.5789 197.789L38.2943 197.503L38.0098 197.789L32.3012 203.517L26.5926 209.244L26.3076 209.529L26.0231 209.244L20.3145 203.517L14.6059 197.789L14.3213 197.503L14.0368 197.789L8.32869 203.517L2.61958 209.244L2.33506 209.529L2.05005 209.244L0.0245418 207.211L0.0245418 208.354L1.19599 209.529L0.0245417 210.704L0.0245416 211.847L2.05005 209.815L2.33506 209.529L2.61958 209.815L8.32869 215.542L14.0368 221.269L14.3213 221.555L14.6058 221.269L20.3145 215.542L26.0231 209.815L26.3076 209.529L26.5926 209.815L32.3012 215.542L38.0098 221.269L38.2943 221.555L38.5789 221.269L44.2875 215.542L49.9961 209.815L50.2806 209.529L50.5656 209.815L56.2742 215.542L61.9823 221.269L62.2674 221.555L62.5519 221.269L68.26 215.542L73.9686 209.815L74.2536 209.529L74.5386 209.815L80.2472 215.542L85.9554 221.269L86.2399 221.555L86.5249 221.269L92.233 215.542L97.9416 209.815L98.2261 209.529L98.5112 209.815L104.22 215.542L109.928 221.269L110.213 221.555L110.497 221.269L116.206 215.542L121.915 209.815L122.199 209.529L122.484 209.815L128.193 215.542L133.901 221.269L134.186 221.555L134.47 221.269L140.179 215.542L145.887 209.815L146.172 209.529L146.457 209.815L152.166 215.542L157.874 221.269L158.158 221.555L158.443 221.269L164.152 215.542L169.86 209.815L170.145 209.529L170.43 209.815L176.138 215.542L181.847 221.269L182.131 221.555L182.416 221.269L188.125 215.542L193.833 209.815L193.975 209.672Z" stroke="#DBDDEA" stroke-miterlimit="10"/>
<path fill-rule="evenodd" clip-rule="evenodd" d="M193.975 233.731L193.975 233.446L193.833 233.303L188.125 227.576L182.416 221.849L182.131 221.562L181.847 221.849L176.138 227.576L170.43 233.303L170.145 233.588L169.86 233.303L164.152 227.576L158.443 221.849L158.158 221.562L157.874 221.849L152.166 227.576L146.457 233.303L146.172 233.588L145.887 233.303L140.179 227.576L134.47 221.849L134.186 221.562L133.901 221.849L128.193 227.576L122.484 233.303L122.199 233.588L121.915 233.303L116.206 227.576L110.497 221.849L110.213 221.562L109.928 221.849L104.22 227.576L98.5112 233.303L98.2261 233.588L97.9416 233.303L92.233 227.576L86.5249 221.849L86.2399 221.562L85.9554 221.849L80.2472 227.576L74.5386 233.303L74.2536 233.588L73.9686 233.303L68.26 227.576L62.5519 221.849L62.2674 221.562L61.9823 221.849L56.2742 227.576L50.5656 233.303L50.2806 233.588L49.9961 233.303L44.2875 227.576L38.5789 221.849L38.2943 221.562L38.0098 221.849L32.3012 227.576L26.5926 233.303L26.3076 233.588L26.0231 233.303L20.3145 227.576L14.6059 221.849L14.3213 221.562L14.0368 221.849L8.32869 227.576L2.61958 233.303L2.33506 233.588L2.05005 233.303L0.0245418 231.271L0.0245418 232.413L1.19599 233.588L0.0245417 234.763L0.0245416 235.906L2.05005 233.874L2.33506 233.588L2.61958 233.874L8.32869 239.601L14.0368 245.328L14.3213 245.614L14.6058 245.328L20.3145 239.601L26.0231 233.874L26.3076 233.588L26.5926 233.874L32.3012 239.601L38.0098 245.328L38.2943 245.614L38.5789 245.328L44.2875 239.601L49.9961 233.874L50.2806 233.588L50.5656 233.874L56.2742 239.601L61.9823 245.328L62.2674 245.614L62.5519 245.328L68.26 239.601L73.9686 233.874L74.2536 233.588L74.5386 233.874L80.2472 239.601L85.9554 245.328L86.2399 245.614L86.5249 245.328L92.233 239.601L97.9416 233.874L98.2261 233.588L98.5112 233.874L104.22 239.601L109.928 245.328L110.213 245.614L110.497 245.328L116.206 239.601L121.915 233.874L122.199 233.588L122.484 233.874L128.193 239.601L133.901 245.328L134.186 245.614L134.47 245.328L140.179 239.601L145.887 233.874L146.172 233.588L146.457 233.874L152.166 239.601L157.874 245.328L158.158 245.614L158.443 245.328L164.152 239.601L169.86 233.874L170.145 233.588L170.43 233.874L176.138 239.601L181.847 245.328L182.131 245.614L182.416 245.328L188.125 239.601L193.833 233.874L193.975 233.731Z" stroke="#DBDDEA" stroke-miterlimit="10"/>
<path fill-rule="evenodd" clip-rule="evenodd" d="M193.975 257.79L193.975 257.504L193.833 257.361L188.125 251.634L182.416 245.907L182.131 245.621L181.847 245.907L176.138 251.634L170.43 257.361L170.145 257.647L169.86 257.361L164.152 251.634L158.443 245.907L158.158 245.621L157.874 245.907L152.166 251.634L146.457 257.361L146.172 257.647L145.887 257.361L140.179 251.634L134.47 245.907L134.186 245.621L133.901 245.907L128.193 251.634L122.484 257.361L122.199 257.647L121.915 257.361L116.206 251.634L110.497 245.907L110.213 245.621L109.928 245.907L104.22 251.634L98.5112 257.361L98.2261 257.647L97.9416 257.361L92.233 251.634L86.5249 245.907L86.2399 245.621L85.9554 245.907L80.2472 251.634L74.5386 257.361L74.2536 257.647L73.9686 257.361L68.26 251.634L62.5519 245.907L62.2674 245.621L61.9823 245.907L56.2742 251.634L50.5656 257.361L50.2806 257.647L49.9961 257.361L44.2875 251.634L38.5789 245.907L38.2943 245.621L38.0098 245.907L32.3012 251.634L26.5926 257.361L26.3076 257.647L26.0231 257.361L20.3145 251.634L14.6059 245.907L14.3213 245.621L14.0368 245.907L8.32869 251.634L2.61958 257.361L2.33506 257.647L2.05005 257.361L0.0245418 255.329L0.0245418 256.471L1.19599 257.647L0.0245417 258.822L0.0245416 259.964L2.05005 257.933L2.33506 257.647L2.61958 257.933L8.32869 263.66L14.0368 269.387L14.3213 269.672L14.6058 269.387L20.3145 263.66L26.0231 257.933L26.3076 257.647L26.5926 257.933L32.3012 263.66L38.0098 269.387L38.2943 269.672L38.5789 269.387L44.2875 263.66L49.9961 257.933L50.2806 257.647L50.5656 257.933L56.2742 263.66L61.9823 269.387L62.2674 269.672L62.5519 269.387L68.26 263.66L73.9686 257.933L74.2536 257.647L74.5386 257.933L80.2472 263.66L85.9554 269.387L86.2399 269.672L86.5249 269.387L92.233 263.66L97.9416 257.933L98.2261 257.647L98.5112 257.933L104.22 263.66L109.928 269.387L110.213 269.672L110.497 269.387L116.206 263.66L121.915 257.933L122.199 257.647L122.484 257.933L128.193 263.66L133.901 269.387L134.186 269.672L134.47 269.387L140.179 263.66L145.887 257.933L146.172 257.647L146.457 257.933L152.166 263.66L157.874 269.387L158.158 269.672L158.443 269.387L164.152 263.66L169.86 257.933L170.145 257.647L170.43 257.933L176.138 263.66L181.847 269.387L182.131 269.672L182.416 269.387L188.125 263.66L193.833 257.933L193.975 257.79Z" stroke="#DBDDEA" stroke-miterlimit="10"/>
<path fill-rule="evenodd" clip-rule="evenodd" d="M193.975 281.848L193.975 281.563L193.833 281.42L188.125 275.693L182.416 269.966L182.131 269.68L181.847 269.966L176.138 275.693L170.43 281.42L170.145 281.706L169.86 281.42L164.152 275.693L158.443 269.966L158.158 269.68L157.874 269.966L152.166 275.693L146.457 281.42L146.172 281.706L145.887 281.42L140.179 275.693L134.47 269.966L134.186 269.68L133.901 269.966L128.193 275.693L122.484 281.42L122.199 281.706L121.915 281.42L116.206 275.693L110.497 269.966L110.213 269.68L109.928 269.966L104.22 275.693L98.5112 281.42L98.2261 281.706L97.9416 281.42L92.233 275.693L86.5249 269.966L86.2399 269.68L85.9554 269.966L80.2472 275.693L74.5386 281.42L74.2536 281.706L73.9686 281.42L68.26 275.693L62.5519 269.966L62.2674 269.68L61.9823 269.966L56.2742 275.693L50.5656 281.42L50.2806 281.706L49.9961 281.42L44.2875 275.693L38.5789 269.966L38.2943 269.68L38.0098 269.966L32.3012 275.693L26.5926 281.42L26.3076 281.706L26.0231 281.42L20.3145 275.693L14.6059 269.966L14.3213 269.68L14.0368 269.966L8.32869 275.693L2.61958 281.42L2.33506 281.706L2.05005 281.42L0.0245418 279.388L0.0245418 280.53L1.19599 281.706L0.0245417 282.881L0.0245416 284.023L2.05005 281.991L2.33506 281.706L2.61958 281.991L8.32869 287.718L14.0368 293.445L14.3213 293.731L14.6058 293.445L20.3145 287.718L26.0231 281.991L26.3076 281.706L26.5926 281.991L32.3012 287.718L38.0098 293.445L38.2943 293.731L38.5789 293.445L44.2875 287.718L49.9961 281.991L50.2806 281.706L50.5656 281.991L56.2742 287.718L61.9823 293.445L62.2674 293.731L62.5519 293.445L68.26 287.718L73.9686 281.991L74.2536 281.706L74.5386 281.991L80.2472 287.718L85.9554 293.445L86.2399 293.731L86.5249 293.445L92.233 287.718L97.9416 281.991L98.2261 281.706L98.5112 281.991L104.22 287.718L109.928 293.445L110.213 293.731L110.497 293.445L116.206 287.718L121.915 281.991L122.199 281.706L122.484 281.991L128.193 287.718L133.901 293.445L134.186 293.731L134.47 293.445L140.179 287.718L145.887 281.991L146.172 281.706L146.457 281.991L152.166 287.718L157.874 293.445L158.158 293.731L158.443 293.445L164.152 287.718L169.86 281.991L170.145 281.706L170.43 281.991L176.138 287.718L181.847 293.445L182.131 293.731L182.416 293.445L188.125 287.718L193.833 281.991L193.975 281.848Z" stroke="#DBDDEA" stroke-miterlimit="10"/>
<path fill-rule="evenodd" clip-rule="evenodd" d="M193.975 305.907L193.975 305.621L193.833 305.479L188.125 299.751L182.416 294.024L182.131 293.738L181.847 294.024L176.138 299.751L170.43 305.479L170.145 305.764L169.86 305.479L164.152 299.751L158.443 294.024L158.158 293.738L157.874 294.024L152.166 299.751L146.457 305.479L146.172 305.764L145.887 305.479L140.179 299.751L134.47 294.024L134.186 293.738L133.901 294.024L128.193 299.751L122.484 305.479L122.199 305.764L121.915 305.479L116.206 299.751L110.497 294.024L110.213 293.738L109.928 294.024L104.22 299.751L98.5112 305.479L98.2261 305.764L97.9416 305.479L92.233 299.751L86.5249 294.024L86.2399 293.738L85.9554 294.024L80.2472 299.751L74.5386 305.479L74.2536 305.764L73.9686 305.479L68.26 299.751L62.5519 294.024L62.2674 293.738L61.9823 294.024L56.2742 299.751L50.5656 305.479L50.2806 305.764L49.9961 305.479L44.2875 299.751L38.5789 294.024L38.2943 293.738L38.0098 294.024L32.3012 299.751L26.5926 305.479L26.3076 305.764L26.0231 305.479L20.3145 299.751L14.6059 294.024L14.3213 293.738L14.0368 294.024L8.32869 299.751L2.61958 305.479L2.33506 305.764L2.05005 305.479L0.0245418 303.446L0.0245418 304.589L1.19599 305.764L0.0245417 306.939L0.0245416 308.082L2.05005 306.05L2.33506 305.764L2.61958 306.05L8.32869 311.777L14.0368 317.504L14.3213 317.79L14.6058 317.504L20.3145 311.777L26.0231 306.05L26.3076 305.764L26.5926 306.05L32.3012 311.777L38.0098 317.504L38.2943 317.79L38.5789 317.504L44.2875 311.777L49.9961 306.05L50.2806 305.764L50.5656 306.05L56.2742 311.777L61.9823 317.504L62.2674 317.79L62.5519 317.504L68.26 311.777L73.9686 306.05L74.2536 305.764L74.5386 306.05L80.2472 311.777L85.9554 317.504L86.2399 317.79L86.5249 317.504L92.233 311.777L97.9416 306.05L98.2261 305.764L98.5112 306.05L104.22 311.777L109.928 317.504L110.213 317.79L110.497 317.504L116.206 311.777L121.915 306.05L122.199 305.764L122.484 306.05L128.193 311.777L133.901 317.504L134.186 317.79L134.47 317.504L140.179 311.777L145.887 306.05L146.172 305.764L146.457 306.05L152.166 311.777L157.874 317.504L158.158 317.79L158.443 317.504L164.152 311.777L169.86 306.05L170.145 305.764L170.43 306.05L176.138 311.777L181.847 317.504L182.131 317.79L182.416 317.504L188.125 311.777L193.833 306.05L193.975 305.907Z" stroke="#DBDDEA" stroke-miterlimit="10"/>
<path fill-rule="evenodd" clip-rule="evenodd" d="M193.975 329.966L193.975 329.68L193.833 329.537L188.125 323.81L182.416 318.083L182.131 317.797L181.847 318.083L176.138 323.81L170.43 329.537L170.145 329.823L169.86 329.537L164.152 323.81L158.443 318.083L158.158 317.797L157.874 318.083L152.166 323.81L146.457 329.537L146.172 329.823L145.887 329.537L140.179 323.81L134.47 318.083L134.186 317.797L133.901 318.083L128.193 323.81L122.484 329.537L122.199 329.823L121.915 329.537L116.206 323.81L110.497 318.083L110.213 317.797L109.928 318.083L104.22 323.81L98.5112 329.537L98.2261 329.823L97.9416 329.537L92.233 323.81L86.5249 318.083L86.2399 317.797L85.9554 318.083L80.2472 323.81L74.5386 329.537L74.2536 329.823L73.9686 329.537L68.26 323.81L62.5519 318.083L62.2674 317.797L61.9823 318.083L56.2742 323.81L50.5656 329.537L50.2806 329.823L49.9961 329.537L44.2875 323.81L38.5789 318.083L38.2943 317.797L38.0098 318.083L32.3012 323.81L26.5926 329.537L26.3076 329.823L26.0231 329.537L20.3145 323.81L14.6059 318.083L14.3213 317.797L14.0368 318.083L8.32869 323.81L2.61958 329.537L2.33506 329.823L2.05005 329.537L0.0245418 327.505L0.0245418 328.647L1.19599 329.823L0.0245417 330.998L0.0245416 332.14L2.05005 330.108L2.33506 329.823L2.61958 330.108L8.32869 335.835L14.0368 341.563L14.3213 341.848L14.6058 341.563L20.3145 335.835L26.0231 330.108L26.3076 329.823L26.5926 330.108L32.3012 335.835L38.0098 341.563L38.2943 341.848L38.5789 341.563L44.2875 335.835L49.9961 330.108L50.2806 329.823L50.5656 330.108L56.2742 335.835L61.9823 341.563L62.2674 341.848L62.5519 341.563L68.26 335.835L73.9686 330.108L74.2536 329.823L74.5386 330.108L80.2472 335.835L85.9554 341.563L86.2399 341.848L86.5249 341.563L92.233 335.835L97.9416 330.108L98.2261 329.823L98.5112 330.108L104.22 335.835L109.928 341.563L110.213 341.848L110.497 341.563L116.206 335.835L121.915 330.108L122.199 329.823L122.484 330.108L128.193 335.835L133.901 341.563L134.186 341.848L134.47 341.563L140.179 335.835L145.887 330.108L146.172 329.823L146.457 330.108L152.166 335.835L157.874 341.563L158.158 341.848L158.443 341.563L164.152 335.835L169.86 330.108L170.145 329.823L170.43 330.108L176.138 335.835L181.847 341.563L182.131 341.848L182.416 341.563L188.125 335.835L193.833 330.108L193.975 329.966Z" stroke="#DBDDEA" stroke-miterlimit="10"/>
</g>
</g>
<defs>
<linearGradient id="paint0_linear_160_1498" x1="240" y1="0" x2="240" y2="320" gradientUnits="userSpaceOnUse">
<stop stop-color="#F9F9F9"/>
<stop offset="1" stop-color="#F9F9F9" stop-opacity="0"/>
</linearGradient>
<clipPath id="clip0_160_1498">
<rect width="480" height="320" fill="white"/>
</clipPath>
<clipPath id="clip1_160_1498">
<rect width="385" height="194" fill="white" transform="translate(388 5) rotate(90)"/>
</clipPath>
<clipPath id="clip2_160_1498">
<rect width="385" height="194" fill="white" transform="translate(582 5) rotate(90)"/>
</clipPath>
<clipPath id="clip3_160_1498">
<rect width="385" height="194" fill="white" transform="translate(194 5) rotate(90)"/>
</clipPath>
</defs>
</svg>
