<svg width="24" height="23" viewBox="0 0 24 23" fill="none" xmlns="http://www.w3.org/2000/svg">
<path d="M23.9999 7.98018V19.5002C23.9999 19.7654 23.8946 20.0198 23.707 20.2073C23.5195 20.3948 23.2651 20.5002 22.9999 20.5002C22.7347 20.5002 22.4803 20.3948 22.2928 20.2073C22.1053 20.0198 21.9999 19.7654 21.9999 19.5002V11.2522L14.5999 14.7882C13.8197 15.2487 12.9289 15.4886 12.0229 15.4822C11.0728 15.4837 10.1399 15.2283 9.32291 14.7432L1.94291 11.2302C1.36279 10.9182 0.876721 10.4567 0.535132 9.89354C0.193543 9.33036 0.00888329 8.68603 0.000312565 8.02741C-0.00825816 7.36879 0.159573 6.71988 0.486391 6.148C0.813209 5.57613 1.28711 5.10212 1.85891 4.77518C1.88591 4.75918 1.91491 4.74418 1.94291 4.73018L9.39991 1.17218C10.205 0.709842 11.1187 0.470308 12.047 0.478217C12.9754 0.486126 13.8848 0.741192 14.6819 1.21718L22.0569 4.73018C22.6388 5.05216 23.1252 5.52247 23.4664 6.09331C23.8077 6.66414 23.9918 7.31516 23.9999 7.98018ZM12.0219 17.4802C10.7425 17.483 9.48504 17.1477 8.37691 16.5082L3.99991 14.4192V17.1192C4.00051 18.1867 4.34228 19.2261 4.97534 20.0856C5.6084 20.9452 6.49962 21.5799 7.51891 21.8972C8.97524 22.3153 10.4849 22.5185 11.9999 22.5002C13.5152 22.5172 15.0248 22.3127 16.4809 21.8932C17.5002 21.5759 18.3914 20.9412 19.0245 20.0816C19.6575 19.2221 19.9993 18.1827 19.9999 17.1152V14.4242L15.5409 16.5542C14.4706 17.1691 13.2563 17.4893 12.0219 17.4822V17.4802Z" fill="#EF476F"/>
</svg>
